<svg xmlns="http://www.w3.org/2000/svg" width="1014.352" height="1330.638" viewBox="0 0 1014.352 1330.638">
  <g id="Group_174" data-name="Group 174" transform="translate(1168.73 13.953)">
    <rect id="Rectangle_26" data-name="Rectangle 26" width="111" height="116" rx="44" transform="matrix(0.899, 0.438, -0.438, 0.899, -658.601, 125.36)" fill="#fff"/>
    <rect id="Rectangle_28" data-name="Rectangle 28" width="111" height="116" rx="44" transform="matrix(0.899, 0.438, -0.438, 0.899, -726.549, 264.673)" fill="#fff"/>
    <rect id="Rectangle_30" data-name="Rectangle 30" width="111" height="116" rx="44" transform="matrix(0.899, 0.438, -0.438, 0.899, -783.711, 409.247)" fill="#fff"/>
    <rect id="Rectangle_32" data-name="Rectangle 32" width="111" height="116" rx="44" transform="matrix(0.899, 0.438, -0.438, 0.899, -851.659, 548.56)" fill="#fff"/>
    <rect id="Rectangle_34" data-name="Rectangle 34" width="111" height="116" rx="44" transform="matrix(0.899, 0.438, -0.438, 0.899, -919.606, 687.873)" fill="#fff"/>
    <rect id="Rectangle_38" data-name="Rectangle 38" width="111" height="116" rx="44" transform="matrix(0.899, 0.438, -0.438, 0.899, -523.782, 191.116)" fill="#fff"/>
    <rect id="Rectangle_40" data-name="Rectangle 40" width="111" height="116" rx="44" transform="matrix(0.899, 0.438, -0.438, 0.899, -591.73, 330.429)" fill="#fff"/>
    <rect id="Rectangle_42" data-name="Rectangle 42" width="111" height="116" rx="44" transform="matrix(0.899, 0.438, -0.438, 0.899, -648.892, 475.002)" fill="#fff"/>
    <rect id="Rectangle_44" data-name="Rectangle 44" width="111" height="116" rx="44" transform="matrix(0.899, 0.438, -0.438, 0.899, -716.839, 614.316)" fill="#fff"/>
    <rect id="Rectangle_46" data-name="Rectangle 46" width="111" height="116" rx="44" transform="matrix(0.899, 0.438, -0.438, 0.899, -784.787, 753.629)" fill="#fff"/>
    <rect id="Rectangle_48" data-name="Rectangle 48" width="111" height="116" rx="44" transform="matrix(0.899, 0.438, -0.438, 0.899, -852.734, 892.942)" fill="#fff"/>
    <rect id="Rectangle_58" data-name="Rectangle 58" width="111" height="116" rx="44" transform="matrix(0.899, 0.438, -0.438, 0.899, -456.911, 396.185)" fill="#fff"/>
    <rect id="Rectangle_62" data-name="Rectangle 62" width="111" height="116" rx="44" transform="matrix(0.899, 0.438, -0.438, 0.899, -514.073, 540.758)" fill="#fff"/>
    <rect id="Rectangle_66" data-name="Rectangle 66" width="111" height="116" rx="44" transform="matrix(0.899, 0.438, -0.438, 0.899, -582.02, 680.071)" fill="#fff"/>
    <rect id="Rectangle_70" data-name="Rectangle 70" width="111" height="116" rx="44" transform="matrix(0.899, 0.438, -0.438, 0.899, -649.968, 819.384)" fill="#fff"/>
    <rect id="Rectangle_74" data-name="Rectangle 74" width="111" height="116" rx="44" transform="matrix(0.899, 0.438, -0.438, 0.899, -717.915, 958.697)" fill="#fff"/>
    <g id="Group_96" data-name="Group 96" transform="matrix(0.899, 0.438, -0.438, 0.899, -471.142, 61.539)">
      <path id="Path_134" data-name="Path 134" d="M82.1,199.821H77.463l-3.107-5.342a.785.785,0,0,0-.707-.382H67.44L64.6,189.085l3.107-5.342a.8.8,0,0,0-.325-1.089.787.787,0,0,0-1.089.268l-3.107,5.4H57.462l-3.107-5.4a.793.793,0,1,0-1.357.821l3.05,5.342L53,194.479a.732.732,0,0,0,0,.815l3.05,5.342-2.834,4.96H48.305a.818.818,0,0,0,0,1.636h4.909l3.107,5.337a.689.689,0,0,0,.707.382h6.648a.785.785,0,0,0,.707-.382l3.056-5.337h6.209a.842.842,0,0,0,.707-.439l3.107-5.342H82.1a.815.815,0,1,0,0-1.631Z" fill="#727270"/>
      <path id="Path_135" data-name="Path 135" d="M62.8,195.45h5.724l2.891,4.96-2.891,4.96H62.8l-2.885-4.96Z" transform="translate(-5.343 -5.55)" fill="#67cdfd"/>
      <path id="Path_136" data-name="Path 136" d="M68.529,225.631H62.8l-2.885-4.96,2.885-4.96h5.724l2.891,4.96Z" transform="translate(-5.343 -14.258)" fill="#67cdfd"/>
    </g>
    <g id="Group_97" data-name="Group 97" transform="matrix(0.899, 0.438, -0.438, 0.899, -667.101, -35.829)">
      <path id="Path_20" data-name="Path 20" d="M-34.007,191.277c-.061-1.633-.588-7.51-2.084-10.906a1.286,1.286,0,0,0-.4-.458,8.385,8.385,0,0,0-5.029-1.763,8.329,8.329,0,0,0-4.961,1.763.881.881,0,0,0-.4.458c-1.5,3.458-2.023,9.273-2.091,10.906a1.784,1.784,0,0,0,.2.786l1.572,2.351,4.571-5.945-1.763-2.419a.848.848,0,0,1,.519-1.305,6.2,6.2,0,0,0,2.289-1.763,6.464,6.464,0,0,0,2.412,1.763.81.81,0,0,1,.458,1.305l-2.61,3.464c-1.633,2.023-19.857,24.559-18.286,26.26l4.373,4.763c.519.656,5.549-5.808,6.006-6.464l15.026-22.01A1.772,1.772,0,0,0-34.007,191.277Z" transform="translate(176)" fill="#727270" fill-rule="evenodd"/>
      <path id="Path_21" data-name="Path 21" d="M-27.179,206.15l-4.571,6.929,6.861,9.86c.458.656,4.175,4.312,4.77,3.724l4.3-4.831c.4-.458-2.351-4.708-2.74-5.166Z" transform="translate(167.149 -8.867)" fill="#67cdfd" fill-rule="evenodd"/>
    </g>
    <g id="Group_102" data-name="Group 102" transform="matrix(0.899, 0.438, -0.438, 0.899, -881.619, 84.2)">
      <path id="Path_92" data-name="Path 92" d="M304.238,308.324a15.307,15.307,0,0,1-5.153,2.525,8.7,8.7,0,0,1-5.1-.142l-.295-.147-2.378-2.332-8.11,8.4,4.126,3.979c2.963,1.7,6.509.2,8.6-2.231a.968.968,0,0,1,1.067.971c-2.525,2.962-6.9,4.614-10.488,2.429l-.147-.1-17.872-17.2,1.016-1.067,3.059,2.962,8.161-8.4-5.879-5.681.976-1.067,7.139,6.941c3.786-2.622,6.555-3.1,8.791-2.282,2.282.874,3.836,3.11,5.341,5.783a.707.707,0,0,1-.239.971.725.725,0,0,1-.976-.295c-1.357-2.378-2.764-4.37-4.609-5.1-1.753-.681-4.035-.244-7.241,1.941l10.539,10.2a7.639,7.639,0,0,0,4.182.1,15.038,15.038,0,0,0,4.66-2.332C304.091,307.206,304.335,307.643,304.238,308.324Z" fill="#727270"/>
    </g>
    <g id="Group_105" data-name="Group 105" transform="matrix(0.899, 0.438, -0.438, 0.899, -870.099, -45.222)">
      <path id="Path_35" data-name="Path 35" d="M619.89,421.23c-4,5.258-4.82,14.129-5.013,17.557a2.755,2.755,0,0,0,3.236,2.911l7.671-1.074c4.5-.7,3.547-8.56,3.673-11.663.763-.763,1.651-1.9,2.917-3.1,1.333,1.326,2.407,2.473,3.229,3.3.126,3.037-.882,10.774,3.554,11.471l7.665,1.074a2.8,2.8,0,0,0,2.221-.57,2.767,2.767,0,0,0,1.008-2.341c-.119-3.428-.948-12.3-4.94-17.557-9-11.855-9.82-2.659-9.568,6.339-1.014-1.207-1.963-2.347-2.029-2.407l.066-6.723H631.42l-.126,6.723c.126-.133-.822.948-1.9,2.155C629.649,418.379,628.761,409.508,619.89,421.23Z" transform="translate(0)" fill="#727270" fill-rule="evenodd"/>
    </g>
    <g id="Group_106" data-name="Group 106" transform="matrix(0.899, 0.438, -0.438, 0.899, -903.834, -54.662)">
      <path id="Path_171" data-name="Path 171" d="M523.821,425.535a9.572,9.572,0,0,0,6.007-3.309,1.256,1.256,0,0,0,.288-1.07,17.008,17.008,0,0,0,3.873-10c0-4.772-2.245-5.278-6.065-6.065v-.053a1.49,1.49,0,0,0-1.293-.735,1.35,1.35,0,1,0,0,2.7,1.143,1.143,0,0,0,.841-.335l.059.053c3.709.788,4.661.958,4.661,4.437a15.758,15.758,0,0,1-3.479,8.992,1.314,1.314,0,0,0-.958.394,5.847,5.847,0,0,1-9.662.053,1.4,1.4,0,0,0-.958-.447,15.856,15.856,0,0,1-3.538-8.992c0-3.479,1.011-3.65,4.72-4.437v-.053a1.282,1.282,0,0,0,.9.335,1.352,1.352,0,1,0-1.293-1.963h-.053c-3.761.84-6.065,1.287-6.065,6.118a16.978,16.978,0,0,0,3.926,10.056,1.159,1.159,0,0,0,.282,1.017,10.051,10.051,0,0,0,5.9,3.309l-.059,6.071c0,4.155-3.65,7.529-8.087,7.529a7.8,7.8,0,0,1-8.034-7.529v-5.337a5.12,5.12,0,0,0,4.549-4.943,5.492,5.492,0,0,0-10.949,0,5.165,5.165,0,0,0,4.543,4.943v5.337c0,5.055,4.443,9.157,9.892,9.157,5.507,0,9.939-4.1,9.939-9.157v-6.071Z" transform="translate(0)" fill="#6c6c6a" fill-rule="evenodd"/>
      <path id="Path_172" data-name="Path 172" d="M506.071,434.271a3.382,3.382,0,1,0,0-6.741,3.377,3.377,0,1,0,0,6.741Z" transform="translate(-1.299 -9.577)" fill="#fefefe" fill-rule="evenodd"/>
      <path id="Path_173" data-name="Path 173" d="M506.649,428.96a2.584,2.584,0,0,1,2.639,2.533,2.623,2.623,0,0,1-2.639,2.58,2.586,2.586,0,0,1-2.639-2.58A2.548,2.548,0,0,1,506.649,428.96Z" transform="translate(-1.929 -10.166)" fill="#67cdfd" fill-rule="evenodd"/>
    </g>
    <g id="Group_107" data-name="Group 107" transform="matrix(0.899, 0.438, -0.438, 0.899, -637.126, -105.934)">
      <path id="Path_17" data-name="Path 17" d="M-39.586,420.55l-13.6,13.514a12.837,12.837,0,0,0-1.736,3.075c-.083.165-.24.479-.4.876l-.471.868c-4.579,9.4,6.083,5.926,9.72,2.207l13.506-13.506Z" transform="translate(176 -2.819)" fill="#67cdfd" fill-rule="evenodd"/>
      <path id="Path_18" data-name="Path 18" d="M-15.693,410.78a5.91,5.91,0,0,0-1.893-4.5,6.011,6.011,0,0,0-4.587-1.975h-.074a6.089,6.089,0,0,0-4.422,1.818l-2.686,2.686-.4-.4a2.444,2.444,0,0,0-2.058-.785,2.623,2.623,0,0,0-1.975.785l-2.521,2.529a2.6,2.6,0,0,0-.793,1.975,4.391,4.391,0,0,0,.074,1.025l11.538,11.538v.083a4.671,4.671,0,0,0,1.182.231,2.752,2.752,0,0,0,1.975-.942l2.529-2.455a2.8,2.8,0,0,0,.793-2.05,2.8,2.8,0,0,0-.793-2.058l-.471-.314,2.761-2.686A5.662,5.662,0,0,0-15.693,410.78Z" transform="translate(172.564)" fill="#6c6c6a" fill-rule="evenodd"/>
      <path id="Path_19" data-name="Path 19" d="M-49.031,459.365l-3.711-7.265-3.794,7.265c-.7,2.529,1.744,4.5,3.794,4.5S-48.155,461.894-49.031,459.365Z" transform="translate(175.957 -8.292)" fill="#67cdfd" fill-rule="evenodd"/>
    </g>
    <g id="Group_111" data-name="Group 111" transform="matrix(0.899, 0.438, -0.438, 0.899, -921.963, -270.84)">
      <path id="Path_79" data-name="Path 79" d="M646.065,764.987v2.639h-5.716l-2.967,5.658a1.331,1.331,0,0,1-1.323.719,1.245,1.245,0,0,1-1.156-.88l-2.248-6.538-1.978,4.779a1.646,1.646,0,0,1-1.432.822,1.46,1.46,0,0,1-1.156-1.156L626.22,759.49l-2.254,17.59a1.257,1.257,0,0,1-1.265,1.156h-.052a1.462,1.462,0,0,1-1.323-1.1l-2.582-13.571-1.593,3.352a1.366,1.366,0,0,1-1.208.713H610.39v-2.639h4.675l3.025-6.268a1.369,1.369,0,0,1,1.374-.765,1.356,1.356,0,0,1,1.156,1.1l1.811,9.563,2.306-17.86a1.213,1.213,0,0,1,1.265-1.1,1.348,1.348,0,0,1,1.374,1.1l2.53,15.388,1.65-3.847a1.306,1.306,0,0,1,1.265-.828,1.388,1.388,0,0,1,1.259.88l2.363,6.981,1.921-3.623a1.294,1.294,0,0,1,1.156-.719Z" fill="#6c6c6a"/>
    </g>
    <g id="Group_112" data-name="Group 112" transform="matrix(0.899, 0.438, -0.438, 0.899, -950.978, -274.987)">
      <path id="Path_110" data-name="Path 110" d="M497.844,768.053a.357.357,0,0,1-.264-.176Zm-.264-.176a.275.275,0,0,1-.088-.31Zm.088-2.082v0Zm-.176,1.772v0Zm.176-1.813a.493.493,0,0,1,.222-.31Zm.222-.31a.5.5,0,0,1,.352-.134Zm.352-.134,1.457.18Zm.574,2.877-.971-.134Zm23.529-28.215a4.837,4.837,0,0,0-3.363-1.369,4.751,4.751,0,0,0-3.359,1.369,4.863,4.863,0,0,0-1.416,3.359,4.834,4.834,0,0,0,4.774,4.779,4.857,4.857,0,0,0,3.363-1.416,4.745,4.745,0,0,0,1.369-3.363A4.842,4.842,0,0,0,522.344,739.972ZM512.306,765.49l1.194-.18a.876.876,0,0,1,.356.088.818.818,0,0,1,.217.31c3.627-2.739,5.88-7.827,4.733-15.7a6.661,6.661,0,0,1-4.557-11.408,6.691,6.691,0,1,1,6.014,11.32c1.286,8.8-1.545,14.415-5.88,17.334l-.134.088.046.222a.429.429,0,0,1-.088.31.445.445,0,0,1-.31.176l-.666.088a3.9,3.9,0,0,1-2.077,2.345,11.614,11.614,0,0,1-10.256,0,4.3,4.3,0,0,1-2.082-2.3v-.046a.351.351,0,0,0-.176-.088l-.662-.088-.088-.046a.338.338,0,0,1-.31-.352l.042-.088-.13-.088c-.088-.046-.134-.088-.222-.134a12.1,12.1,0,0,1-5.792-10.922l-1.328-.134,2.521-17.066,4.82.486a2.317,2.317,0,0,1,2.3,2.387l-1.86,12.777a2.61,2.61,0,0,1-2.961,1.9l-2.036-.217a10.826,10.826,0,0,0,4.733,9.326l.13.046v-.088a.161.161,0,0,0,.046-.088.463.463,0,0,1,.4-.222l1.328.176.13-.13a6.715,6.715,0,0,1,1.2-.888,11.613,11.613,0,0,1,10.256,0A4.679,4.679,0,0,1,512.306,765.49Zm-26-11.852,1.855-12.736a2.577,2.577,0,0,1,2.965-1.9h.176l-2.48,17.07H488.6A2.351,2.351,0,0,1,486.307,753.638Z" transform="translate(0)" fill="#727270" fill-rule="evenodd"/>
      <path id="Path_111" data-name="Path 111" d="M553.37,748.082a1.329,1.329,0,0,0,.352,1.813,1.371,1.371,0,0,0,1.369.046l3.363,1.457-2.7-2.475a1.272,1.272,0,0,0-.578-1.24A1.306,1.306,0,0,0,553.37,748.082Z" transform="translate(-35.934 -5.811)" fill="#67cdfd" fill-rule="evenodd"/>
    </g>
    <g id="Group_114" data-name="Group 114" transform="matrix(0.899, 0.438, -0.438, 0.899, -800.708, 93.434)">
      <path id="Path_106" data-name="Path 106" d="M496.163,630.495c0-1.112-1.451-2.033-3.191-2.033s-3.191.92-3.191,2.033,1.446,2.028,3.191,2.028S496.163,631.607,496.163,630.495Zm25.08,26.051a2.483,2.483,0,0,0-1.739-.723,2.593,2.593,0,0,0-1.785.723,2.487,2.487,0,0,0-.728,1.739,2.518,2.518,0,0,0,.728,1.79,2.593,2.593,0,0,0,1.785.723,2.483,2.483,0,0,0,1.739-.723,2.325,2.325,0,0,0,.728-1.79A2.29,2.29,0,0,0,521.244,656.546ZM510.66,642.964a5.969,5.969,0,0,0,0-11.939H499.88v.147a.542.542,0,0,1-.526.576h-2.468a4.4,4.4,0,0,1-3.914,1.841c-2.372,0-4.253-1.355-4.253-3.095s1.881-3.095,4.253-3.095a4.6,4.6,0,0,1,3.863,1.74h2.518a.546.546,0,0,1,.526.581v.192H510.66a7.056,7.056,0,1,1,0,14.113c-1.739,0-3.383.051-5.077.051a5.978,5.978,0,0,0-5.992,5.941,6.152,6.152,0,0,0,6.093,6.043l4.106-.339-1.163-1.689a2.8,2.8,0,0,1-.48-2.033,2.888,2.888,0,0,1,1.158-1.836l11.458-8.07a2.7,2.7,0,0,1,2.078-.435,2.568,2.568,0,0,1,1.785,1.107l4.207,5.947a2.843,2.843,0,0,1-.678,3.868l-5.653,3.964a3.039,3.039,0,0,1,.485,1.739,3.471,3.471,0,0,1-3.484,3.53,3.6,3.6,0,0,1-2.513-1.016c-.051-.1-.147-.147-.192-.243l-.147.1a2.843,2.843,0,0,1-3.868-.678l-2.316-3.287-4.885.389a7.056,7.056,0,0,1,0-14.113Z" transform="translate(0)" fill="#727270" fill-rule="evenodd"/>
      <path id="Path_107" data-name="Path 107" d="M548.881,688.253l1.74.774-1.4-1.3a.705.705,0,0,0-.288-.678.721.721,0,0,0-.971.243.646.646,0,0,0,.192.915A.779.779,0,0,0,548.881,688.253Z" transform="translate(-29.23 -29.437)" fill="#67cdfd" fill-rule="evenodd"/>
    </g>
    <g id="Group_119" data-name="Group 119" transform="matrix(0.899, 0.438, -0.438, 0.899, -472.84, 417.188)">
      <g id="Group_74" data-name="Group 74" transform="translate(61.11 635.14)">
        <path id="Path_123" data-name="Path 123" d="M83.158,656.043l-10.882-20.9-10.765,20.9c-2.161,7.3,4.826,13.107,10.823,13.107S85.629,663.463,83.158,656.043Z" transform="translate(-61.11 -635.14)" fill="#727270" fill-rule="evenodd"/>
        <path id="Path_124" data-name="Path 124" d="M88.477,668.531a1.1,1.1,0,0,1,.058.433v.867c0,.123-.058.3-.058.427a6.592,6.592,0,0,1-.123,1.055c-.065.181-.065.369-.123.556l-.188.556a10.408,10.408,0,0,1-.433,1.236c-.252.375-.433.744-.679,1.113a9.8,9.8,0,0,1-1.857,2.044c-.311.246-.679.492-1.055.737-2.348,2.413-7.725-4.082-1.294-4.393,3.092-.123,4.205-5.745,3.649-5.932A1.754,1.754,0,0,1,88.477,668.531Z" transform="translate(-67.665 -646.45)" fill="#67cdfd" fill-rule="evenodd"/>
      </g>
    </g>
    <g id="Group_120" data-name="Group 120" transform="matrix(0.899, 0.438, -0.438, 0.899, -659.858, 325.85)">
      <path id="Path_45" data-name="Path 45" d="M-54.45,644.408h-5.615A1.684,1.684,0,0,0-61.76,646v17.965a1.689,1.689,0,0,0,1.7,1.589h29.473a1.69,1.69,0,0,0,1.7-1.589V648.434c-.059.113-.172.166-.4.166H-61.309s-.4,0-.4-.225v-1.417a.181.181,0,0,1,.172-.166h32.473c.059,0,.113.053.172.053V646a1.686,1.686,0,0,0-1.7-1.589H-36.77V639.25H-54.45v5.158Z" transform="translate(176)" fill="#727270" fill-rule="evenodd"/>
      <rect id="Rectangle_7" data-name="Rectangle 7" width="13.714" height="3.053" transform="translate(122.991 640.88)" fill="#fefefe"/>
      <path id="Path_46" data-name="Path 46" d="M-46.192,668.016h3.006s.451-.059.451.338v2.834a.827.827,0,0,0,.854.794h5.1a.791.791,0,0,0,.848-.794v-2.775c0-.344.457-.4.457-.4h3a.827.827,0,0,0,.854-.794v-4.761a.827.827,0,0,0-.854-.794h-3.059c-.338,0-.4-.4-.4-.4v-2.834a.781.781,0,0,0-.848-.735h-5.1a.821.821,0,0,0-.854.735v2.893a.353.353,0,0,1-.4.338h-3.059a.826.826,0,0,0-.848.794v4.761A.826.826,0,0,0-46.192,668.016Z" transform="translate(170.007 -7.511)" fill="#67cdfd" fill-rule="evenodd"/>
    </g>
    <rect id="Rectangle_16" data-name="Rectangle 16" width="111" height="116" rx="44" transform="matrix(0.899, 0.438, -0.438, 0.899, -856.874, 201.109)" fill="#fff"/>
    <rect id="Rectangle_18" data-name="Rectangle 18" width="111" height="116" rx="44" transform="matrix(0.899, 0.438, -0.438, 0.899, -914.036, 345.683)" fill="#fff"/>
    <rect id="Rectangle_68" data-name="Rectangle 68" width="111" height="116" rx="44" transform="matrix(0.899, 0.438, -0.438, 0.899, -447.201, 745.827)" fill="#fff"/>
    <rect id="Rectangle_72" data-name="Rectangle 72" width="111" height="116" rx="44" transform="matrix(0.899, 0.438, -0.438, 0.899, -515.149, 885.14)" fill="#fff"/>
    <rect id="Rectangle_76" data-name="Rectangle 76" width="111" height="116" rx="44" transform="matrix(0.899, 0.438, -0.438, 0.899, -583.096, 1024.453)" fill="#fff"/>
    <g id="Group_103" data-name="Group 103" transform="matrix(0.899, 0.438, -0.438, 0.899, -1164.52, -247.117)">
      <path id="Path_102" data-name="Path 102" d="M533.26,333.95a6.183,6.183,0,0,0,3.15.58,7.049,7.049,0,0,0,3.44-1.15,6.773,6.773,0,0,0,2.49-2.68,7.322,7.322,0,0,0,.76-2l-2.3-.58-.47-.28-2.2-2.11-6.12,6.31.19.1a.581.581,0,0,1,.1.57l-.1.1,1.34.76Z" fill="#ed1b23" fill-rule="evenodd"/>
      <path id="Path_103" data-name="Path 103" d="M545.49,306.42c-.09.1-.19.2-.09.29l.38.48a4.584,4.584,0,0,1-1.53.38v-.67c0-.19-.1-.28-.29-.28-.09,0-.19.09-.19.28v.67a3.828,3.828,0,0,1-1.53-.29s.1,0,.1-.09l.28-.48a.178.178,0,0,0,0-.29.329.329,0,0,0-.28.1l-.38.57a3.306,3.306,0,0,1-.96-.67l.48-.38a.3.3,0,0,0,0-.38c-.1-.19-.29-.19-.38,0l-.49.38a4.48,4.48,0,0,1-.76-1.05l.67-.29c.09,0,.09-.09.09-.19-.09-.09-.19-.19-.28-.09l-.57.19a2.667,2.667,0,0,1-.29-1.24h.67a.308.308,0,0,0,.28-.29.429.429,0,0,0-.28-.29h-.67a2.955,2.955,0,0,1,.29-1.24l.57.29h.09c.1,0,.1-.1.19-.1,0-.1,0-.29-.09-.29l-.57-.28a3.107,3.107,0,0,1,.66-1.05l.49.47c0,.1.09.1.19.1a.3.3,0,0,0,.19-.1.3.3,0,0,0,0-.38l-.48-.48a4.484,4.484,0,0,1,1.05-.67l.29.58c0,.09.09.09.19.09s.19-.19.19-.28l-.29-.58a5.13,5.13,0,0,1,1.25-.19v.58a.245.245,0,0,0,.28.28c.19,0,.29-.09.29-.28v-.58a5.122,5.122,0,0,1,1.24.19l-.19.67c-.09.1,0,.19.1.19s.19,0,.19-.09l.29-.58a4.222,4.222,0,0,1,1.04.67l-.47.48a.292.292,0,0,0,.19.48c.09,0,.19,0,.19-.1l.48-.47a8.362,8.362,0,0,1,.76,1.14l-.67.19a.372.372,0,0,0-.09.29c.09.1.09.1.19.1h.09l.58-.29.28,1.24h-.66a.3.3,0,0,0-.29.29.255.255,0,0,0,.29.29h.66c-.09.47-.19.86-.28,1.33l-.58-.28a.351.351,0,0,0-.28.09.372.372,0,0,0,.09.29l.58.19a4.183,4.183,0,0,1-.67,1.05l-.48-.38c-.1-.19-.29-.19-.38,0a.278.278,0,0,0,0,.38l.47.38a2.265,2.265,0,0,1-.85.58l-.29-.48A.338.338,0,0,0,545.49,306.42Zm-.28,3.45v1.52h-.49V326.5a11.521,11.521,0,0,0,3.54-.39,20.629,20.629,0,0,0,7.27-3.63c1.15.1,1.53.77,1.34,1.92a25.109,25.109,0,0,1-8.04,3.91,15.851,15.851,0,0,1-4.2.48,8.188,8.188,0,0,1-.86,2.68,8.322,8.322,0,0,1-3.06,3.25,9.209,9.209,0,0,1-4.21,1.34,8.6,8.6,0,0,1-4.01-.67l-.29.38-1.33-.76v.09c-.1.19-.39.19-.58.1l-.86-.48-4.01,4.2,4.87,4.69c4.69,2.67,10.32.38,13.58-3.44,1.05-.1,1.53.47,1.72,1.43-4.02,4.68-10.9,7.26-16.54,3.82l-.19-.09-28.1-27.05,1.62-1.63,2.49,2.39,12.81-13.29-6.98-6.59,1.62-1.63c10.04,9.75,19.31,18.74,29.44,28.49a5.833,5.833,0,0,0,1.34.38V311.39h-.48v-1.52h-.09a.418.418,0,0,1-.38-.39v-1.43c0-.1,0-.19.09-.19a5.2,5.2,0,0,1-3.34-4.78,5.066,5.066,0,0,1,10.13,0,5.215,5.215,0,0,1-3.34,4.78.318.318,0,0,1,.09.19v1.43a.418.418,0,0,1-.38.39Z" fill="#727270" fill-rule="evenodd"/>
      <path id="Path_104" data-name="Path 104" d="M544.44,302.79l-.38-2.58-.48,2.58a.818.818,0,0,0-.58.77.905.905,0,0,0,.96.95.944.944,0,0,0,.96-.86A1.022,1.022,0,0,0,544.44,302.79Z" fill="#67cdfd" fill-rule="evenodd"/>
    </g>
    <g id="Group_128" data-name="Group 128" transform="matrix(0.899, 0.438, -0.438, 0.899, -722.395, 501.172)">
      <path id="Path_100" data-name="Path 100" d="M419.753,330.671a2.513,2.513,0,0,0,0,5.026,2.513,2.513,0,1,0,0-5.026Zm-14.916-24.748a11.294,11.294,0,0,1-1.6.073l.2.139c.357.212.773.416,1.116.627A3.929,3.929,0,0,1,404.837,305.923Zm3.341-10.175c.839,0,1.466.277,1.466.627s-.627.627-1.466.627-1.459-.277-1.459-.627S407.346,295.748,408.178,295.748Zm-.554-9.343a.751.751,0,0,1,.139-.977.63.63,0,0,1,.977.139c2.582,3.348,4.464,6.346,4.814,8.716.277,2.509-.985,4.187-4.741,4.668.343,2.932-.277,4.887-1.678,6-.066.073-.2.212-.277.212,16.871,1.466,21.335,20.569,20.08,34.092l-13.523-.066c-1.816-9.555,3.341-26.637-6.98-30.605a1.432,1.432,0,0,1-.343,1.736l-.416.284h-1.882c1.255,5.573,0,8.293-2.721,9.271-2.516.9-3.625.212-7.95-1.189a.708.708,0,0,1-.489-.9.848.848,0,0,1,.9-.489c4.048,1.327,4.88,2.028,7.046,1.255,2.02-.766,2.852-2.925,1.809-7.6a1.092,1.092,0,0,1,.627-1.6,3.805,3.805,0,0,1,1.816-.139h.277a.909.909,0,0,0-.423-.489,11.521,11.521,0,0,0-1.947-1.4,12.227,12.227,0,0,1-2.932-2.086l.7-1.116c2.721.693,4.6.627,5.718-.277,1.116-.839,1.466-2.655,1.116-5.368l-.139-.773.766-.066c3.209-.277,4.318-1.466,4.114-3.209C411.876,292.4,410.067,289.541,407.623,286.4Z" fill="#727270" fill-rule="evenodd"/>
      <path id="Path_101" data-name="Path 101" d="M426.39,350.036a2.547,2.547,0,0,0,2.509,2.509,2.513,2.513,0,1,0,0-5.025A2.549,2.549,0,0,0,426.39,350.036Z" transform="translate(-9.146 -16.849)" fill="#67cdfd" fill-rule="evenodd"/>
    </g>
    <g id="Group_93" data-name="Group 93" transform="matrix(0.899, 0.438, -0.438, 0.899, -784.921, 197.256)">
      <path id="Path_188" data-name="Path 188" d="M309.593,95.344l-.233-.41c-.937-1.635-3.05-5.383-5.273-8.6-.7-1.108-1.464-2.107-2.107-2.982-1.053-1.464-2.4-3.276-2.4-3.864.061-2.339,0-7.961,0-9.657h1.409V67.37H283.248v2.456h1.88c0,1.7-.061,7.318,0,9.657,0,.588-1.347,2.4-2.407,3.864-.7.876-1.4,1.874-2.162,2.982-2.168,3.221-4.275,6.969-5.211,8.6l-.233.41a5.742,5.742,0,0,0,0,5.505,3.4,3.4,0,0,0,3.1,1.813h28.274a3.549,3.549,0,0,0,3.1-1.813A5.742,5.742,0,0,0,309.593,95.344Z" fill="#727270" fill-rule="evenodd"/>
      <path id="Path_189" data-name="Path 189" d="M309.112,101.645a1.388,1.388,0,0,1-1.347.821H279.491a1.394,1.394,0,0,1-1.347-.821,3.634,3.634,0,0,1,0-3.454l.239-.41c.937-1.58,2.982-5.328,5.15-8.488.7-1.053,1.464-2.045,2.107-2.927,1.874-2.572,2.866-3.919,2.811-5.1-.061-2.107-.061-7.024,0-9.131h10.362c0,2.168.055,7.024,0,9.131-.061,1.176.937,2.523,2.811,5.1.643.882,1.347,1.874,2.1,2.927,2.113,3.16,4.219,6.908,5.1,8.488l.233.41A3.607,3.607,0,0,1,309.112,101.645Z" transform="translate(-1.277 -1.849)" fill="#fff" fill-rule="evenodd"/>
      <path id="Path_190" data-name="Path 190" d="M306.82,85.782c0-.759.4-1.4.931-1.4s.937.643.937,1.4-.41,1.408-.937,1.408S306.82,86.548,306.82,85.782Z" transform="translate(-12.561 -6.593)" fill="#67cdfd" fill-rule="evenodd"/>
      <path id="Path_191" data-name="Path 191" d="M301.342,87.3c-.937,0-1.7-1.17-1.7-2.572,0-1.464.766-2.633,1.7-2.633.992,0,1.751,1.17,1.751,2.633C303.094,86.126,302.335,87.3,301.342,87.3Z" transform="translate(-9.778 -5.706)" fill="#67cdfd" fill-rule="evenodd"/>
      <path id="Path_192" data-name="Path 192" d="M303.229,93.111c0,1-.527,1.758-1.17,1.758s-1.17-.759-1.17-1.758c0-.931.527-1.751,1.17-1.751S303.229,92.181,303.229,93.111Z" transform="translate(-10.263 -9.299)" fill="#67cdfd" fill-rule="evenodd"/>
      <path id="Path_193" data-name="Path 193" d="M306.847,97.148c0,2.462-2.517,2.462-2.517,0,0-1.053.527-1.868,1.225-1.868S306.847,96.094,306.847,97.148Z" transform="translate(-11.596 -10.818)" fill="#67cdfd" fill-rule="evenodd"/>
      <path id="Path_194" data-name="Path 194" d="M298.078,94.292c0,.759-.41,1.347-.937,1.347s-.931-.588-.931-1.347c0-.821.4-1.4.931-1.4S298.078,93.472,298.078,94.292Z" transform="translate(-8.449 -9.892)" fill="#67cdfd" fill-rule="evenodd"/>
      <path id="Path_195" data-name="Path 195" d="M308.536,109.362c-.527-.937-1.758-3.166-3.044-5.034-.349-.527-.643-.937-1-1.409H284.3c-.349.472-.643.882-.992,1.409-1.292,1.868-2.517,4.1-3.05,5.034l-.171.233a3.481,3.481,0,0,0,0,3.221,2.073,2.073,0,0,0,1.813,1.108h24.937a2.1,2.1,0,0,0,1.874-1.108,3.481,3.481,0,0,0,0-3.221Z" transform="translate(-2.048 -13.78)" fill="#67cdfd" fill-rule="evenodd"/>
      <path id="Path_196" data-name="Path 196" d="M307.661,91.472c0,.527-.294.931-.588.931-.349,0-.643-.4-.643-.931,0-.472.294-.882.643-.882C307.367,90.59,307.661,91,307.661,91.472Z" transform="translate(-12.41 -9)" fill="#67cdfd" fill-rule="evenodd"/>
    </g>
    <g id="Group_125" data-name="Group 125" transform="matrix(0.899, 0.438, -0.438, 0.899, -588.637, 63.677)">
      <path id="Path_162" data-name="Path 162" d="M206.288,780.083v-3.008a15.357,15.357,0,0,1-2.858-.427l.142-9.367a9.523,9.523,0,0,1,2.933-.292v-3.075c-5.581-.067-8.873,2.716-11.664,5.649-2.566-3-5.791-5.933-11.364-6.008-5.649-.067-8.94,2.723-11.656,5.581-2.648-2.933-5.791-5.865-11.447-6.008l-.067,3.075a9.553,9.553,0,0,1,3.359.568l-.142,9.083a11.784,11.784,0,0,1-3.367.434l-.067,3.075c5.649.067,8.94-2.791,11.589-5.649,2.641,3,5.858,5.865,11.507,6.008,5.581.075,8.873-2.716,11.656-5.649C197.423,777.076,200.64,780.008,206.288,780.083Z" fill="#6c6c6a"/>
      <path id="Path_163" data-name="Path 163" d="M209.22,773.586a19.191,19.191,0,0,1,4.152-3.576L213.3,777.3A21.826,21.826,0,0,1,209.22,773.586Z" transform="translate(-12.373 -1.733)" fill="#fefefe"/>
      <path id="Path_164" data-name="Path 164" d="M193.2,777.513a12.175,12.175,0,0,1-2.933.292,9.778,9.778,0,0,1-2.072-.217l.15-9.659a9.933,9.933,0,0,1,2.14-.209,11.254,11.254,0,0,1,2.858.426Z" transform="translate(-7.077 -1.156)" fill="#67cdfd"/>
      <path id="Path_165" data-name="Path 165" d="M178.35,772.963a18.369,18.369,0,0,1,4.93-4l-.142,8.08A17.047,17.047,0,0,1,178.35,772.963Z" transform="translate(-4.599 -1.468)" fill="#67cdfd"/>
      <path id="Path_166" data-name="Path 166" d="M168.262,769.73a19.143,19.143,0,0,1,3.5,3.359,25.193,25.193,0,0,1-3.644,3.217Z" transform="translate(-2.022 -1.662)" fill="#fefefe"/>
      <path id="Path_167" data-name="Path 167" d="M202.472,773.448a21.51,21.51,0,0,1-4.152,3.576l.075-7.294A18.162,18.162,0,0,1,202.472,773.448Z" transform="translate(-9.628 -1.662)" fill="#67cdfd"/>
    </g>
    <g id="Group_90" data-name="Group 90" transform="matrix(0.899, 0.438, -0.438, 0.899, -110.043, -240.082)">
      <path id="Path_32" data-name="Path 32" d="M-27.07,106.75a13.124,13.124,0,0,0,6.03,2.96c2.29-4.78,4.2-10.61,4.11-15.49a19.05,19.05,0,0,0-.48-4.39C-20.95,101.87-33.76,100.15-27.07,106.75Z" transform="translate(64 992)" fill="#727270" fill-rule="evenodd"/>
      <path id="Path_33" data-name="Path 33" d="M-18.65,86.77a6.475,6.475,0,0,0-3.45-2.68,4.324,4.324,0,0,1-.67-.29c-.47-.28-.76-2.48-.19-5.82a14.927,14.927,0,0,1,1.34-3.35.691.691,0,0,0,0-.86,1,1,0,0,0-.67-.58l-2.67-.47a.949.949,0,0,0-1.15.67c-.57,2.67-2.68,8.5-3.44,9.36-.1.1-.19.29-.29.29-.28,0-.86-.57-.86-1.34-.09-1.34.48-6.12.67-8.6a.838.838,0,0,0-.29-.67.8.8,0,0,0-.66-.38h-2.3a.9.9,0,0,0-.95.95c0,.1-.58,5.36-.96,7.75-.19.95-.67,3.05-1.24,3.05a.618.618,0,0,1-.48-.19c-1.15-.47-2.01-4.39-2.29-5.83-.48-2.1-.67-3.72-.67-3.72a1.153,1.153,0,0,0-.39-.77.958.958,0,0,0-.86-.19l-2.77.76a.991.991,0,0,0-.67,1.15,23.152,23.152,0,0,1,1.24,4.4,3.406,3.406,0,0,1-1.43,3.53,5.967,5.967,0,0,0-.76.48,6.973,6.973,0,0,0-1.53,1.44C-35.67,88.01-24.58,114.68-18.65,86.77Z" transform="translate(64 992)" fill="#67cdfd" fill-rule="evenodd"/>
      <path id="Path_34" data-name="Path 34" d="M-21.91,111.43a27.756,27.756,0,0,1-4.96,6.98,7.32,7.32,0,0,1-4.88,1.91c-3.54,0-7.74-2.58-12.71-7.84a23.913,23.913,0,0,1-6.5-14.34c-.48-4.49.29-8.79,1.91-11.18l.48-.48c17.11,4.11,12.81,14.34,20.07,21.6A14.372,14.372,0,0,0-21.91,111.43Z" transform="translate(64 992)" fill="#727270" fill-rule="evenodd"/>
    </g>
    <rect id="Rectangle_14" data-name="Rectangle 14" width="111" height="116" rx="44" transform="matrix(0.899, 0.438, -0.438, 0.899, -788.927, 61.796)" fill="#fff"/>
    <rect id="Rectangle_20" data-name="Rectangle 20" width="111" height="116" rx="44" transform="matrix(0.899, 0.438, -0.438, 0.899, -981.984, 484.996)" fill="#fff"/>
    <rect id="Rectangle_22" data-name="Rectangle 22" width="111" height="116" rx="44" transform="matrix(0.899, 0.438, -0.438, 0.899, -1049.931, 624.309)" fill="#fff"/>
    <rect id="Rectangle_24" data-name="Rectangle 24" width="111" height="116" rx="44" transform="matrix(0.899, 0.438, -0.438, 0.899, -1117.879, 763.622)" fill="#fff"/>
    <rect id="Rectangle_52" data-name="Rectangle 52" width="111" height="116" rx="44" transform="matrix(0.899, 0.438, -0.438, 0.899, -254.144, 322.627)" fill="#fff"/>
    <rect id="Rectangle_60" data-name="Rectangle 60" width="111" height="116" rx="44" transform="matrix(0.899, 0.438, -0.438, 0.899, -322.092, 461.94)" fill="#fff"/>
    <rect id="Rectangle_64" data-name="Rectangle 64" width="111" height="116" rx="44" transform="matrix(0.899, 0.438, -0.438, 0.899, -379.254, 606.514)" fill="#fff"/>
    <rect id="Rectangle_78" data-name="Rectangle 78" width="111" height="116" rx="44" transform="matrix(0.899, 0.438, -0.438, 0.899, -785.863, 1098.01)" fill="#fff"/>
    <rect id="Rectangle_80" data-name="Rectangle 80" width="111" height="116" rx="44" transform="matrix(0.899, 0.438, -0.438, 0.899, -651.044, 1163.766)" fill="#fff"/>
    <rect id="Rectangle_84" data-name="Rectangle 84" width="111" height="116" rx="44" transform="matrix(0.899, 0.438, -0.438, 0.899, -1055.501, 966.499)" fill="#fff"/>
    <rect id="Rectangle_86" data-name="Rectangle 86" width="111" height="116" rx="44" transform="matrix(0.899, 0.438, -0.438, 0.899, -920.682, 1032.255)" fill="#fff"/>
    <rect id="Rectangle_90" data-name="Rectangle 90" width="111" height="116" rx="44" transform="matrix(0.899, 0.438, -0.438, 0.899, -590.654, -13.953)" fill="#fff"/>
    <rect id="Rectangle_92" data-name="Rectangle 92" width="111" height="116" rx="44" transform="matrix(0.899, 0.438, -0.438, 0.899, -455.835, 51.803)" fill="#fff"/>
    <g id="Group_91" data-name="Group 91" transform="matrix(0.899, 0.438, -0.438, 0.899, -594.613, -57.801)">
      <path id="Path_183" data-name="Path 183" d="M95.78,95.19c0-2.816-.935-3.672-2.442-4.893v-.089c-1.693-1.319-3.1-2.451-4.421-3.485a.415.415,0,0,1-.286-.374V80.511h1.319V77.124c0-8-23.343-6.488-23.343,0v3.387h1.319v5.838a.421.421,0,0,1-.276.374c-1.319,1.034-2.737,2.068-4.43,3.485-1.506,1.309-2.442,2.166-2.442,4.982v19.3a5.365,5.365,0,0,0,5.356,5.454H90.424a5.307,5.307,0,0,0,5.356-5.454V95.19Z" transform="translate(0)" fill="#727270" fill-rule="evenodd"/>
      <path id="Path_184" data-name="Path 184" d="M90.379,117.26h-24.2a1.945,1.945,0,0,1-1.962-2.1V95.56c0-1.34,0-1.43,1.128-2.39h.088c1.589-1.34,3-2.48,4.218-3.44a3.713,3.713,0,0,0,1.687-3.15V80.65H85.219v5.93a3.866,3.866,0,0,0,1.589,3.15c1.314.96,2.629,2.1,4.316,3.44,1.226.96,1.226,1.05,1.226,2.39v19.6A2.01,2.01,0,0,1,90.379,117.26Z" transform="translate(0 -0.758)" fill="#fefefe" fill-rule="evenodd"/>
      <rect id="Rectangle_12" data-name="Rectangle 12" width="20.57" height="13.96" transform="translate(68.33 99.202)" fill="#67cdfd"/>
    </g>
    <g id="Group_92" data-name="Group 92" transform="matrix(0.899, 0.438, -0.438, 0.899, -561.298, -42.169)">
      <path id="Path_185" data-name="Path 185" d="M191.54,113.63l6.12-11.19-.1-.19-2.1-3.15-1.15-1.15a19.4,19.4,0,0,0-11.47-4.68h-.29l-6.5,11.85a8.351,8.351,0,0,0-1.05,4.59,8.731,8.731,0,0,0,4.59,7.36A8.911,8.911,0,0,0,191.54,113.63Z" fill="#727270" fill-rule="evenodd"/>
      <path id="Path_186" data-name="Path 186" d="M183.41,90.78l2.01.39c3.92.57,9.18,2.29,12.52,7.26l1.34,1.91,6.79-12.42a8.835,8.835,0,0,0,1.15-4.88,8.94,8.94,0,0,0-4.79-7.65,9.051,9.051,0,0,0-12.42,3.64Z" fill="#727270" fill-rule="evenodd"/>
      <path id="Path_187" data-name="Path 187" d="M201.1,77.88a6.2,6.2,0,0,1,3.34,5.26,7.034,7.034,0,0,1-.76,3.44l-4.69,8.5a20.962,20.962,0,0,0-11.18-6.4l4.59-8.32A6.348,6.348,0,0,1,201.1,77.88Z" fill="#67cdfd" fill-rule="evenodd"/>
    </g>
    <g id="Group_94" data-name="Group 94" transform="matrix(0.899, 0.438, -0.438, 0.899, -763.53, 31.214)">
      <path id="Path_56" data-name="Path 56" d="M656.66,74.25h-8.51v-.58a1.173,1.173,0,0,0-1.24-1.05h-11a1.17,1.17,0,0,0-1.23,1.05v.58h-8.42a2.573,2.573,0,0,0-2.68,2.48v40.53a2.581,2.581,0,0,0,2.68,2.49h30.4a2.556,2.556,0,0,0,2.58-2.49V76.73A2.548,2.548,0,0,0,656.66,74.25Z" fill="#727270" fill-rule="evenodd"/>
      <path id="Path_57" data-name="Path 57" d="M656.28,116.97H626.55V77.02h8.13v.29a1.173,1.173,0,0,0,1.23,1.14h11a1.176,1.176,0,0,0,1.24-1.14v-.29h8.13Z" fill="#fefefe" fill-rule="evenodd"/>
      <path id="Path_58" data-name="Path 58" d="M636.97,93.94a2.585,2.585,0,1,0-2.58,2.58A2.567,2.567,0,0,0,636.97,93.94Z" fill="#727270" fill-rule="evenodd"/>
      <path id="Path_59" data-name="Path 59" d="M649.11,92.5h-8.8a1.407,1.407,0,0,0-1.43,1.44,1.43,1.43,0,0,0,1.43,1.53h8.8a1.5,1.5,0,0,0,1.52-1.53A1.485,1.485,0,0,0,649.11,92.5Z" fill="#67cdfd" fill-rule="evenodd"/>
      <path id="Path_60" data-name="Path 60" d="M636.97,101.77a2.585,2.585,0,1,0-2.58,2.59A2.565,2.565,0,0,0,636.97,101.77Z" fill="#727270" fill-rule="evenodd"/>
      <path id="Path_61" data-name="Path 61" d="M649.11,100.34h-8.8a1.4,1.4,0,0,0-1.43,1.43,1.433,1.433,0,0,0,1.43,1.54h8.8a1.505,1.505,0,0,0,1.52-1.54A1.483,1.483,0,0,0,649.11,100.34Z" fill="#67cdfd" fill-rule="evenodd"/>
      <path id="Path_62" data-name="Path 62" d="M636.97,86.67a2.585,2.585,0,1,0-2.58,2.58A2.573,2.573,0,0,0,636.97,86.67Z" fill="#727270" fill-rule="evenodd"/>
      <path id="Path_63" data-name="Path 63" d="M636.97,109.42a2.585,2.585,0,1,0-2.58,2.58A2.573,2.573,0,0,0,636.97,109.42Z" fill="#727270" fill-rule="evenodd"/>
      <path id="Path_64" data-name="Path 64" d="M649.11,107.89h-8.8a1.43,1.43,0,0,0-1.43,1.53,1.407,1.407,0,0,0,1.43,1.44h8.8a1.485,1.485,0,0,0,1.52-1.44A1.5,1.5,0,0,0,649.11,107.89Z" fill="#67cdfd" fill-rule="evenodd"/>
      <path id="Path_65" data-name="Path 65" d="M649.11,85.15h-8.8a1.422,1.422,0,0,0-1.43,1.52,1.407,1.407,0,0,0,1.43,1.44h8.8a1.481,1.481,0,1,0,0-2.96Z" fill="#67cdfd" fill-rule="evenodd"/>
    </g>
    <g id="Group_98" data-name="Group 98" transform="matrix(0.899, 0.438, -0.438, 0.899, -843.638, -127.537)">
      <path id="Path_137" data-name="Path 137" d="M207.99,187.545a3.862,3.862,0,0,0-1.577-5.367l-6.391-3.468a3.971,3.971,0,0,0-5.45,1.577l-7.812,14.36L200.178,202Z" transform="translate(-3.065)" fill="#727270" fill-rule="evenodd"/>
      <path id="Path_138" data-name="Path 138" d="M184.867,198.866a.778.778,0,0,0-1.106.314l-4.575,8.365a.794.794,0,0,0,.314,1.107l13.418,7.341a.76.76,0,0,0,1.106-.314l4.575-8.365a.778.778,0,0,0-.314-1.107Z" transform="translate(-1.725 -3.584)" fill="#67cdfd" fill-rule="evenodd"/>
      <path id="Path_139" data-name="Path 139" d="M169.641,225.87a3.994,3.994,0,0,0,1.585,5.367l6.391,3.559a4.073,4.073,0,0,0,5.45-1.585l7.812-14.442-13.418-7.258Z" transform="translate(0 -5.807)" fill="#727270" fill-rule="evenodd"/>
      <path id="Path_140" data-name="Path 140" d="M198.756,184.048a1.138,1.138,0,0,1,.4,1.5,1.066,1.066,0,0,1-1.5.4,1.156,1.156,0,0,0-1.5.471,1.081,1.081,0,0,0,.4,1.5,1.041,1.041,0,0,1,.4,1.495.951.951,0,0,1-1.42.322,1,1,0,0,1-.479-1.42,1.066,1.066,0,0,1,1.5-.4,1.159,1.159,0,0,0,1.5-.479,1.071,1.071,0,0,0-.4-1.495,1.048,1.048,0,0,1-.4-1.5A1.227,1.227,0,0,1,198.756,184.048Z" transform="translate(-4.483 -1.003)" fill="#67cdfd" fill-rule="evenodd"/>
      <path id="Path_141" data-name="Path 141" d="M201.54,185.67a1.091,1.091,0,0,1,.471,1.495,1.048,1.048,0,0,1-1.495.4,1.136,1.136,0,0,0-1.5.4,1.064,1.064,0,0,0,.4,1.5,1.1,1.1,0,1,1-1.106,1.891.973.973,0,0,1-.4-1.42,1.088,1.088,0,0,1,1.5-.471,1.055,1.055,0,0,0,1.495-.4,1.073,1.073,0,0,0-.388-1.5,1.075,1.075,0,0,1,1.024-1.891Z" transform="translate(-4.979 -1.279)" fill="#67cdfd" fill-rule="evenodd"/>
      <path id="Path_142" data-name="Path 142" d="M204.41,187.3a1.063,1.063,0,0,1,.388,1.5,1.037,1.037,0,0,1-1.495.4,1.1,1.1,0,0,0-1.42.4,1.151,1.151,0,0,0,.4,1.577,1.108,1.108,0,0,1,.4,1.495,1.128,1.128,0,0,1-1.5.322.976.976,0,0,1-.4-1.42,1.064,1.064,0,0,1,1.5-.4A1.112,1.112,0,0,0,203.3,189.2a1.116,1.116,0,0,1-.4-1.5A1.227,1.227,0,0,1,204.41,187.3Z" transform="translate(-5.479 -1.569)" fill="#67cdfd" fill-rule="evenodd"/>
      <path id="Path_143" data-name="Path 143" d="M207.266,188.916a1.1,1.1,0,1,1-1.107,1.891,1.147,1.147,0,0,0-1.495.4,1.064,1.064,0,0,0,.4,1.5,1.146,1.146,0,0,1,.471,1.495,1.114,1.114,0,0,1-1.974-1.024,1.088,1.088,0,0,1,1.5-.471,1.066,1.066,0,0,0,1.5-.4,1.078,1.078,0,0,0-.4-1.5,1.116,1.116,0,0,1-.388-1.495A1.056,1.056,0,0,1,207.266,188.916Z" transform="translate(-5.974 -1.842)" fill="#67cdfd" fill-rule="evenodd"/>
      <path id="Path_144" data-name="Path 144" d="M179.339,225.222a1.154,1.154,0,0,1,.388,1.577,1.122,1.122,0,0,1-1.495.314,1.064,1.064,0,0,1-.4-1.5,1.076,1.076,0,0,1,1.5-.388,1.1,1.1,0,0,0,1.495-.322,1.029,1.029,0,0,0-.314-1.495,1.1,1.1,0,0,1,1.107-1.9,1,1,0,0,1,.314,1.5.96.96,0,0,1-1.42.4,1.1,1.1,0,0,0-1.5.314A1.11,1.11,0,0,0,179.339,225.222Z" transform="translate(-1.482 -7.521)" fill="#67cdfd" fill-rule="evenodd"/>
      <path id="Path_145" data-name="Path 145" d="M182.183,226.942a1.116,1.116,0,0,1,.322,1.495,1.1,1.1,0,0,1-1.9-1.1,1.144,1.144,0,0,1,1.577-.4,1.141,1.141,0,0,0,1.5-.322,1.126,1.126,0,0,0-.4-1.495,1.167,1.167,0,0,1-.4-1.577,1.116,1.116,0,0,1,1.5-.314,1.071,1.071,0,0,1,.4,1.495,1.16,1.16,0,0,1-1.5.4,1.034,1.034,0,0,0-1.495.314A1.063,1.063,0,0,0,182.183,226.942Z" transform="translate(-1.965 -7.82)" fill="#67cdfd" fill-rule="evenodd"/>
      <path id="Path_146" data-name="Path 146" d="M184.891,228.662a1.1,1.1,0,1,1-1.106,1.891,1.048,1.048,0,0,1-.314-1.495.974.974,0,0,1,1.42-.4,1.208,1.208,0,0,0,1.577-.314,1.177,1.177,0,0,0-.4-1.585,1.094,1.094,0,0,1-.388-1.495,1.191,1.191,0,0,1,1.577-.314,1.1,1.1,0,0,1,.314,1.495.986.986,0,0,1-1.5.314,1.147,1.147,0,0,0-1.495.4A1.1,1.1,0,0,0,184.891,228.662Z" transform="translate(-2.459 -8.12)" fill="#67cdfd" fill-rule="evenodd"/>
      <path id="Path_147" data-name="Path 147" d="M178.855,219.786a1.087,1.087,0,0,1,.388,1.5,1.165,1.165,0,0,1-1.577.4,1.065,1.065,0,1,0-1.107,1.817,1.077,1.077,0,0,1,.322,1.577,1.086,1.086,0,1,1-1.817-1.189,1.116,1.116,0,0,1,1.495-.388,1.045,1.045,0,0,0,1.5-.322,1.056,1.056,0,0,0-.4-1.495,1.13,1.13,0,0,1-.314-1.5A1.079,1.079,0,0,1,178.855,219.786Z" transform="translate(-0.997 -7.221)" fill="#67cdfd" fill-rule="evenodd"/>
    </g>
    <g id="Group_99" data-name="Group 99" transform="matrix(0.899, 0.438, -0.438, 0.899, -675.107, 134.566)">
      <path id="Path_158" data-name="Path 158" d="M497.854,185.918c-.23,1.507.291,2.318,1.1,2.488.811.061,1.556-.521,1.846-2.082a6.461,6.461,0,0,0-.866-3.583A6.963,6.963,0,0,0,497.854,185.918Z" transform="translate(0 -1.283)" fill="#67cdfd" fill-rule="evenodd"/>
      <path id="Path_159" data-name="Path 159" d="M542.923,231.622l-.866-.866,1.792-1.447-4.279-4.63,5.375-4.279,4.285,4.57,1.792-1.447.866.926Z" transform="translate(-16.488 -16.148)" fill="#727270" fill-rule="evenodd"/>
      <path id="Path_160" data-name="Path 160" d="M531.886,202.515l-.406-.46-1.271,1.041-16.663-17.7h-.061l-5.5-1.047-4.509-4.8-.061-.054-.169.575,4.219,4.685.115,5.441L524.3,207.9l-1.1.926.406.46,7-5.726Z" transform="translate(-2.151 0)" fill="#727270" fill-rule="evenodd"/>
      <path id="Path_161" data-name="Path 161" d="M519.084,192.389l-2.548,2.022.466.466,2.488-2.028.866.926-1.332,1.156.406.466,1.386-1.1.932.926-1.453,1.156.466.406,1.386-1.1.811.872-2.427,2.022.4.466,2.494-2.028.866.926-1.392,1.1.412.46,1.386-1.156.926.987-1.386,1.1.4.521,1.392-1.156,1.1,1.156-2.488,1.967.406.466,2.488-2.028.7.751-1.332,1.047.46.46,1.277-1.041.926.926-1.332,1.041.46.46,1.277-1.041,2.887,3.123-4.915,3.995-16.548-17.529-.115-4.975,5.036.926Z" transform="translate(-5.317 -3.584)" fill="#67cdfd" fill-rule="evenodd"/>
    </g>
    <g id="Group_104" data-name="Group 104" transform="matrix(0.899, 0.438, -0.438, 0.899, -783.645, 134.823)">
      <path id="Path_105" data-name="Path 105" d="M632.12,304.639c-.053.053-.1.153-.053.206l.3.4a2.67,2.67,0,0,1-1.207.3v-.553a.2.2,0,0,0-.4,0v.553a3.067,3.067,0,0,1-1.159-.248l.3-.453a.127.127,0,0,0-.047-.206c-.053-.047-.153,0-.2.053l-.3.453v.047a5.536,5.536,0,0,1-.759-.5l.348-.353a.237.237,0,0,0,0-.353.305.305,0,0,0-.3,0l-.348.4a3.241,3.241,0,0,1-.559-.906l.453-.148a.2.2,0,0,0,.105-.2.2.2,0,0,0-.206-.105l-.453.205a2.257,2.257,0,0,1-.2-.959h.5a.234.234,0,0,0,.206-.253.22.22,0,0,0-.206-.2h-.5a2.293,2.293,0,0,1,.2-1.006l.453.2h.053c.047,0,.1-.047.153-.1a.193.193,0,0,0-.105-.2l-.453-.206a4.346,4.346,0,0,1,.559-.8l.348.348a.183.183,0,0,0,.153.053.173.173,0,0,0,.148-.053c.105-.1.105-.248,0-.3l-.348-.353a2.2,2.2,0,0,1,.859-.553l.2.453c.047.053.1.1.148.1l.053-.047a.1.1,0,0,0,.047-.153l-.148-.506a5.645,5.645,0,0,1,.954-.2V299a.234.234,0,0,0,.2.253.241.241,0,0,0,.253-.253V298.5a3.285,3.285,0,0,1,1.006.253l-.2.453c-.047.053,0,.153.1.2h.053a.108.108,0,0,0,.1-.1l.2-.453a3.108,3.108,0,0,1,.859.553l-.353.353c-.1.053-.1.2,0,.3a.183.183,0,0,0,.153.053.173.173,0,0,0,.147-.053l.353-.348a4.476,4.476,0,0,1,.553.854l-.453.2c-.1,0-.1.1-.1.205a.2.2,0,0,0,.153.047h.053l.448-.2a2.369,2.369,0,0,1,.2,1.006h-.5a.215.215,0,0,0-.2.2.23.23,0,0,0,.2.253h.5a3.591,3.591,0,0,1-.2,1.006l-.448-.2c-.105-.053-.153,0-.206.053-.053.1,0,.148.1.2l.453.2a4.474,4.474,0,0,1-.553.854l-.353-.4a.3.3,0,0,0-.3,0,.245.245,0,0,0,0,.353l.353.353a7.784,7.784,0,0,1-.653.453l-.306-.453C632.268,304.639,632.221,304.639,632.12,304.639Zm-1.212-6.6a3.981,3.981,0,0,0-1.354,7.7v1.312a.287.287,0,0,0,.3.3h.047v1.159h.706v16.624H613.584V320.4h.606v-.553h4.331V294.67h-8.462a2.85,2.85,0,0,0-2.819,2.819v19.543a2.872,2.872,0,0,0,2.766,2.819v.553h.559v8.109h29.159V318.339h.653v-.653a3.7,3.7,0,0,0,2.018-1.712,6.4,6.4,0,0,0,.854-3.325,6.565,6.565,0,0,0-1.059-3.678,3.15,3.15,0,0,0-5.438,0,6.608,6.608,0,0,0-1.059,3.678,6.4,6.4,0,0,0,.859,3.325,3.685,3.685,0,0,0,2.013,1.712v.653h.559v9.569H611.118v-7.5h.706v-.553h.553v.553h.606v5.338h18.231V308.517h.753v-1.159h.053a.287.287,0,0,0,.3-.3v-1.312a3.945,3.945,0,0,0,2.571-3.725A3.989,3.989,0,0,0,630.909,298.042Z" transform="translate(0 -4.253)" fill="#727270" fill-rule="evenodd"/>
      <path id="Path_41" data-name="Path 41" d="M638.88,295.05a2.8,2.8,0,0,1,1.813,2.619v19.543a2.845,2.845,0,0,1-1.812,2.619Z" transform="translate(-14.969 -4.433)" fill="#727270" fill-rule="evenodd"/>
      <path id="Path_42" data-name="Path 42" d="M632.183,285.68a1.962,1.962,0,0,1,1.259.506,2,2,0,0,1,.506,1.307V316.9a1.728,1.728,0,0,1-1.765,1.765,2,2,0,0,1-1.307-.506,1.95,1.95,0,0,1-.506-1.259V287.493a1.734,1.734,0,0,1,1.813-1.813Z" transform="translate(-10.943)" fill="#727270" fill-rule="evenodd"/>
      <path id="Path_43" data-name="Path 43" d="M651.879,306.333l-.3-2.013-.353,2.013a.685.685,0,0,0-.406.659.693.693,0,0,0,.706.706.735.735,0,0,0,.759-.706A.794.794,0,0,0,651.879,306.333Z" transform="translate(-20.617 -8.818)" fill="#67cdfd" fill-rule="evenodd"/>
      <path id="Path_44" data-name="Path 44" d="M633.56,287.61a.716.716,0,0,0-.606-.3,1.036,1.036,0,0,0-.954.954v29.412a.893.893,0,0,0,.3.659.973.973,0,0,0,.653.253.845.845,0,0,0,.606-.253.893.893,0,0,0,.3-.659V288.264A.819.819,0,0,0,633.56,287.61Z" transform="translate(-11.714 -0.771)" fill="#67cdfd" fill-rule="evenodd"/>
    </g>
    <g id="Group_108" data-name="Group 108" transform="matrix(0.899, 0.438, -0.438, 0.899, -764.41, 9.432)">
      <path id="Path_117" data-name="Path 117" d="M106.657,412.353c-.066,1.268.378,1.906,1.016,1.906.631.06,1.208-.511,1.335-1.713a5.134,5.134,0,0,0-.956-2.8A5.911,5.911,0,0,0,106.657,412.353Z" transform="translate(-20.07 -0.987)" fill="#67cdfd" fill-rule="evenodd"/>
      <path id="Path_118" data-name="Path 118" d="M86.906,406.857l-9.4,8.7a1.163,1.163,0,0,0-1.587.066l-2.351,2.218a2.593,2.593,0,0,0-2.6.511L52.883,435.1l-1.394-1.461a.744.744,0,0,0-1.082,1.016l1.275,1.394-2.862,2.6-1.2-1.394-.7.7,6.029,6.733.7-.637-1.208-1.335,2.922-2.669,1.268,1.335a.794.794,0,0,0,1.082.066.776.776,0,0,0,.06-1.076l-1.394-1.4,18.154-16.819a2.536,2.536,0,0,0,.7-2.536l2.41-2.158a1.368,1.368,0,0,0,.252-1.527l9.4-8.692a.4.4,0,0,0,0-.385A.422.422,0,0,0,86.906,406.857Z" fill="#727270" fill-rule="evenodd"/>
      <path id="Path_119" data-name="Path 119" d="M81.691,427.456,72.554,435.9l-.445-.5-.5-.511-1.275-1.335,9.143-8.439a1.616,1.616,0,0,1,2.218,2.351Z" transform="translate(-7.866 -5.998)" fill="#fefefe" fill-rule="evenodd"/>
    </g>
    <g id="Group_109" data-name="Group 109" transform="matrix(0.899, 0.438, -0.438, 0.899, -757.759, 57.055)">
      <path id="Path_53" data-name="Path 53" d="M652.469,563.582H638.053a1.637,1.637,0,0,1-1.615-1.623v-3.754a3.9,3.9,0,0,1,2.277-3.454,1.029,1.029,0,0,0,.592-1.323l-1.4-3.531a.738.738,0,0,1,.438-.954l10.885-4.338a1.314,1.314,0,0,0,.808-.731,1.387,1.387,0,0,0,0-1.108,1.417,1.417,0,0,0-1.762-.808l-17.054,6.615a1.15,1.15,0,0,0-.669,1.323l.223.592c.077.292.077.515-.146.662a.682.682,0,0,1-.592.292c-1.615-.292-4.485-1.4-5.438-6.246-1.392-6.915,4.931-10.223,8.092-11.477a1.171,1.171,0,0,1,1.1.077,1.26,1.26,0,0,1,.808.808l-.515.292a.471.471,0,0,0-.223.592c.154.146.223.223.446.223a.214.214,0,0,0,.146-.077l.515-.223a3.922,3.922,0,0,0,1.839,1.469l-.077.669c-.069.215.146.438.369.508h.077a.47.47,0,0,0,.369-.362l.069-.592a2.392,2.392,0,0,0,.731.077,3.257,3.257,0,0,0,1.477-.3l.362.669a.408.408,0,0,0,.369.215h.223a.379.379,0,0,0,.146-.585l-.369-.661a4.156,4.156,0,0,0,1.4-1.623l.515.223a.267.267,0,0,0,.223.077.4.4,0,0,0,.362-.223c.077-.223.077-.515-.146-.585l-.654-.369a2.93,2.93,0,0,0,.069-.808,3.272,3.272,0,0,0-.3-1.546l.446-.223a.4.4,0,0,0,.146-.585.4.4,0,0,0-.515-.223l-.446.3a3.136,3.136,0,0,0-1.023-.962,2.152,2.152,0,0,1-.369-.515L635.407,518.8a1.741,1.741,0,0,0-2.277-.877.542.542,0,0,1-.738-.3l-.954-1.985a1.237,1.237,0,0,0-1.692-.585,1.3,1.3,0,0,0-.585,1.692l.877,1.838a.886.886,0,0,1,.077.438.5.5,0,0,1-.369.292,1.793,1.793,0,0,0-.885,1.031,1.433,1.433,0,0,0,0,1.323l1.469,3.308a1.089,1.089,0,0,1-.585,1.323c-3.969,1.769-12.423,7.062-10.362,18.9,1.1,5.877,4.262,8.531,6.839,9.846a3.716,3.716,0,0,1,2.2,3.461v3.308a1.664,1.664,0,0,1-1.692,1.692h-3.669a.994.994,0,0,0-1.039.954v1.985h31.4v-1.915A.923.923,0,0,0,652.469,563.582Z" fill="#6c6c6a"/>
      <path id="Path_54" data-name="Path 54" d="M636.192,565.94a.678.678,0,0,1,.738.662.738.738,0,0,1-.738.738.726.726,0,0,1-.661-.738A.657.657,0,0,1,636.192,565.94Z" transform="translate(-3.8 -11.773)" fill="#67cdfd"/>
      <path id="Path_55" data-name="Path 55" d="M635.052,532.58a.732.732,0,0,1,.662.738.662.662,0,1,1-1.323,0A.726.726,0,0,1,635.052,532.58Z" transform="translate(-3.537 -4.075)" fill="#67cdfd"/>
    </g>
    <g id="Group_113" data-name="Group 113" transform="matrix(0.899, 0.438, -0.438, 0.899, -878.416, -244.392)">
      <path id="Path_108" data-name="Path 108" d="M297.148,763.533a6.3,6.3,0,0,1,1.958,2.044c1.22,1.958,1.266,3.7.656,4.831a2.934,2.934,0,0,1-1.047,1.134,2.743,2.743,0,0,1-1.48.392c-1.307.046-2.873-.783-4.048-2.741a6.143,6.143,0,0,1-.956-2.7v-.046a3.7,3.7,0,0,1,.437-2.217l-.223-.346a.355.355,0,0,1-.087-.219V763.4c.046-.082.087-.128.132-.214.046-.046.087-.132.178-.173l.132-.046-2.832-4.786a3.3,3.3,0,0,0-4.485-1.134,3.1,3.1,0,0,0-1.48,2,3.148,3.148,0,0,0,.351,2.477c.26.437.519.874.783,1.352.26.437.478.87.783,1.307v.041a4.584,4.584,0,0,1,.478,3.529,4.446,4.446,0,0,1-2.131,2.828v.045a4.735,4.735,0,0,1-6.4-1.657l-2.746-5.091a9.22,9.22,0,1,1,1.744-.7,1.476,1.476,0,0,1-.392.173,20.43,20.43,0,0,1,2.177,4.089c.173.351.26.61.346.788a3.4,3.4,0,0,0,2.044,1.521,3.667,3.667,0,0,0,2.527-.351,3.2,3.2,0,0,0,1.48-2,3.119,3.119,0,0,0-.351-2.482c-.26-.437-.519-.87-.783-1.348-.26-.437-.478-.874-.783-1.348a4.587,4.587,0,0,1-.478-3.529,4.42,4.42,0,0,1,2.131-2.873,4.636,4.636,0,0,1,3.529-.478,4.437,4.437,0,0,1,2.873,2.135l2.782,4.745a.318.318,0,0,1,.173-.046.206.206,0,0,1,.219,0,.344.344,0,0,1,.219.087.365.365,0,0,1,.178.173h.041l.219.392A4.144,4.144,0,0,1,297.148,763.533Z" transform="translate(0)" fill="#67cdfd" fill-rule="evenodd"/>
      <path id="Path_109" data-name="Path 109" d="M269.066,759.308l-.087-.173-.437.219-.087-.177.132-.824.173-.086.305.606.132-.041.087.127-.132.087.087.178Zm4.572-3.524-3.005-1.134,2.482,2.049a1.062,1.062,0,0,0,.565,1.043,1.132,1.132,0,0,0,1.571-.437,1.185,1.185,0,0,0-.392-1.566A1.121,1.121,0,0,0,273.638,755.783Zm5.482,4.613a.3.3,0,0,0,.132.433l.956.569a8.658,8.658,0,0,1-2.131,1.826c-.046-.041-.046-.041-.046-.086l-.524-1.043a.5.5,0,0,0-.606-.219.457.457,0,0,0-.219.61l.524,1.043a.145.145,0,0,0,.041.086,7.751,7.751,0,0,1-2.614.7v-.041l.178-1.22a.341.341,0,0,0-.305-.351.413.413,0,0,0-.392.351l-.132,1.175v.132a8.014,8.014,0,0,1-2.044-.26l.346-1.134a.466.466,0,0,0-.3-.61.5.5,0,0,0-.656.305l-.346,1.088a7.332,7.332,0,0,1-2.049-1.175l.742-.87a.313.313,0,0,0-.046-.478.345.345,0,0,0-.478.041l-.738.87a7.94,7.94,0,0,1-1.439-1.78l1.047-.524a.551.551,0,0,0,.219-.7.505.505,0,0,0-.7-.219l-1,.524a7.2,7.2,0,0,1-.61-2.309l1.134-.046a.16.16,0,0,1,.128-.041c.132-.086.219-.173.173-.346a.333.333,0,0,0-.346-.305l-1.134.086a6.667,6.667,0,0,1,.264-2.268l1.088.351a.323.323,0,0,0,.346-.041.379.379,0,0,0,.26-.31.463.463,0,0,0-.3-.606l-1.088-.351a7.373,7.373,0,0,1,1.175-2.044l.87.742a.418.418,0,0,0,.392.041l.087-.086a.342.342,0,0,0-.046-.478l-.87-.738a8.07,8.07,0,0,1,1.785-1.439l.524,1.043a.545.545,0,0,0,.7.219.511.511,0,0,0,.219-.7l-.524-1a7.14,7.14,0,0,1,2.309-.61l.041,1.129c.046.173.173.351.392.305a.158.158,0,0,0,.132-.046.362.362,0,0,0,.173-.305l-.087-1.175a9.8,9.8,0,0,1,2.263.264l-.351,1.129a.465.465,0,0,0,.351.61.321.321,0,0,0,.346-.041.4.4,0,0,0,.264-.264l.346-1.084a6.283,6.283,0,0,1,2.044,1.17l-.738.874a.336.336,0,0,0,.046.474.325.325,0,0,0,.346.046c.046,0,.087-.046.132-.086l.738-.87a7.948,7.948,0,0,1,1.434,1.785l-1.043.524a.542.542,0,0,0-.214.692.5.5,0,0,0,.692.223l1.047-.528a8.631,8.631,0,0,1,.565,2.263l-1.134.091a.341.341,0,0,0-.3.392.332.332,0,0,0,.346.3L282.08,756a9.838,9.838,0,0,1-.26,2.268l-1.088-.351a.5.5,0,0,0-.656.351.469.469,0,0,0,.305.606l1.088.351a7.045,7.045,0,0,1-.824,1.607l-1-.565A.42.42,0,0,0,279.12,760.4Zm-6.744.61a.264.264,0,0,1,.26,0c.128.041.219.132.305.346a.564.564,0,0,1,.086.437.238.238,0,0,1-.132.219.389.389,0,0,1-.305,0,1.41,1.41,0,0,1-.305-.351.6.6,0,0,1-.086-.433A.284.284,0,0,1,272.377,761.006Zm.087.132c-.046.041-.046.041-.046.086-.041,0-.041.041,0,.087a2.289,2.289,0,0,0,.087.26,1.02,1.02,0,0,0,.132.219.133.133,0,0,0,.087.041c.041.046.041,0,.087,0,0,0,.046,0,.046-.041V761.7c0-.087-.046-.132-.132-.264-.046-.128-.087-.214-.132-.214a.09.09,0,0,0-.087-.086Zm6.789-3.615a.576.576,0,0,1,.26-.041.719.719,0,0,1,.305.387,1,1,0,0,1,.132.437.44.44,0,0,1-.173.219.358.358,0,0,1-.305,0,.741.741,0,0,1-.264-.351,1.134,1.134,0,0,1-.128-.433A.3.3,0,0,1,279.252,757.523Zm.087.132-.046.041v.132a2.031,2.031,0,0,0,.087.26.386.386,0,0,1,.132.219.135.135,0,0,0,.087.046h.091l.041-.046v-.087a.585.585,0,0,0-.087-.26c-.086-.132-.132-.219-.132-.219l-.087-.087Zm-.305,1.216-.086-.214-.392.214-.087-.173.087-.829.173-.086.305.61.132-.041.086.132-.132.086.086.173Zm-.173-.387-.173-.31-.046.437Zm-.392.433.087.173-.651.351a.381.381,0,0,1-.046-.219,1.492,1.492,0,0,1,.086-.351c.046-.128.087-.214.087-.214v-.173a.127.127,0,0,0-.087-.046.077.077,0,0,0-.127,0c-.046,0-.046.046-.087.086a.17.17,0,0,0,.041.132l-.219.087a.354.354,0,0,1,0-.305c.046-.046.087-.132.178-.173a.788.788,0,0,1,.3-.046c.046.046.132.087.178.173,0,.046.041.091.041.132a.338.338,0,0,1-.041.173.31.31,0,0,1-.046.173.318.318,0,0,0-.046.173c-.041.046-.041.046-.041.091Zm.519-5.833a.551.551,0,0,1,.264-.046,1.062,1.062,0,0,1,.305.4.554.554,0,0,1,.086.433.227.227,0,0,1-.173.219.3.3,0,0,1-.264,0,.838.838,0,0,1-.305-.346.612.612,0,0,1-.087-.437C278.815,753.17,278.9,753.129,278.988,753.083Zm.091.132-.091.087v.087c.046.045.046.132.132.264a.872.872,0,0,0,.132.214c.041.046.041.046.087.046h.086a.045.045,0,0,1,.046-.046v-.086a1.747,1.747,0,0,0-.132-.26c-.046-.132-.087-.219-.132-.219-.041-.046-.041-.087-.086-.087Zm-.87.26a.259.259,0,0,1,.3-.041.779.779,0,0,1,.264.346.8.8,0,0,1,.128.478.728.728,0,0,1-.173.219.354.354,0,0,1-.305,0,.77.77,0,0,1-.26-.351,1.317,1.317,0,0,1-.132-.474A.355.355,0,0,1,278.21,753.475Zm.087.132-.046.046v.128a.78.78,0,0,0,.087.219c.087.128.132.214.173.26,0,.046.046.046.087.046h.046a.045.045,0,0,0,.046-.046v-.086a.594.594,0,0,0-.091-.26c-.041-.132-.128-.219-.128-.26a.141.141,0,0,1-.087-.046Zm-.087.87.087.173-.7.351v-.219a1.761,1.761,0,0,1,.087-.346c.046-.132.046-.223.086-.223,0-.086,0-.127-.041-.173a.165.165,0,0,0-.091-.041c-.041-.046-.041-.046-.087,0a.09.09,0,0,0-.086.087v.127l-.173.091a.354.354,0,0,1,0-.305.565.565,0,0,1,.173-.173.532.532,0,0,1,.264-.046.355.355,0,0,1,.173.173.17.17,0,0,1,.041.132v.173c0,.046-.041.087-.041.178-.046.087-.087.128-.087.173v.086Zm-2.7-4.221a.264.264,0,0,1,.26,0,.809.809,0,0,1,.305.346.592.592,0,0,1,.087.437.28.28,0,0,1-.173.214.264.264,0,0,1-.26,0,.585.585,0,0,1-.305-.346.554.554,0,0,1-.086-.433A.28.28,0,0,1,275.51,750.255Zm.086.173c-.046,0-.046,0-.086.046v.086c.041.041.041.132.128.26a.514.514,0,0,0,.132.219c.046.041.046.087.087.087a.127.127,0,0,0,.086-.046l.046-.041v-.086c-.046-.046-.046-.132-.132-.26a.837.837,0,0,0-.128-.219l-.091-.091A.042.042,0,0,0,275.6,750.429Zm-.437.305-.173.087-.041-.041h-.086c-.046.041-.091.041-.091.128a.453.453,0,0,0,.046.219.568.568,0,0,1,.132-.173.264.264,0,0,1,.26,0,.435.435,0,0,1,.219.173.39.39,0,0,1,0,.305.294.294,0,0,1-.173.219.391.391,0,0,1-.305,0,.827.827,0,0,1-.264-.351.554.554,0,0,1-.087-.432c0-.087.087-.173.173-.264.091,0,.178-.041.219,0C275.072,750.6,275.118,750.647,275.159,750.734Zm-.214.61c.041.086.087.086.128.128h.132c.046,0,.046-.041.046-.087.041-.041,0-.087,0-.132-.046-.086-.091-.127-.132-.127a.081.081,0,0,0-.132,0,.145.145,0,0,0-.041.086Zm-.31.565-.173.132-.392-.742a.39.39,0,0,1-.127.264l-.087-.178a.578.578,0,0,1,.087-.132.489.489,0,0,0,.041-.214l.173-.086Zm-2.782-1.612a.906.906,0,0,1,.305-.041,3.016,3.016,0,0,1,.305.346.721.721,0,0,1,.087.478.294.294,0,0,1-.173.219.272.272,0,0,1-.264,0,.648.648,0,0,1-.305-.346.612.612,0,0,1-.087-.437A.2.2,0,0,1,271.853,750.3Zm.086.132a.042.042,0,0,1-.041.046v.127a.658.658,0,0,0,.128.264.875.875,0,0,0,.132.214c0,.046.041.046.087.046h.041a.045.045,0,0,0,.046-.046c.046-.041.046-.041,0-.087a.648.648,0,0,0-.087-.26c-.046-.132-.087-.219-.132-.219l-.086-.086Zm-.086.87.086.173-.651.351a.381.381,0,0,1-.046-.219,2.323,2.323,0,0,1,.087-.351,1.631,1.631,0,0,0,.087-.214c0-.086,0-.132-.041-.132a.1.1,0,0,0-.087-.086H271.2c-.041.046-.087.046-.087.086a.158.158,0,0,0,.046.132l-.219.087q-.061-.2,0-.26a.461.461,0,0,1,.173-.219.272.272,0,0,1,.264,0c.087,0,.173.046.173.132a.16.16,0,0,1,.041.128v.173c0,.046-.041.086-.041.173-.046.091-.046.178-.087.178v.087Zm-.829.656-.219.086-.346-.7a.955.955,0,0,1-.173.26l-.087-.173a.6.6,0,0,0,.128-.178.366.366,0,0,0,.046-.214l.132-.086Zm-1.958,1.566a.264.264,0,0,1,.26,0c.132.046.219.132.305.346a.561.561,0,0,1,.087.437.242.242,0,0,1-.128.219.39.39,0,0,1-.305,0,1.409,1.409,0,0,1-.305-.351.579.579,0,0,1-.087-.433A.3.3,0,0,1,269.066,753.52Zm.087.132c-.041.041-.041.041-.041.087-.046,0-.046.041,0,.087a1.608,1.608,0,0,0,.087.26,1.026,1.026,0,0,0,.128.219.149.149,0,0,0,.091.041c.041.046.041.046.087,0a.04.04,0,0,0,.041-.041v-.091a.68.68,0,0,0-.127-.26.49.49,0,0,0-.132-.214.093.093,0,0,0-.087-.087Zm-.783.783a.15.15,0,0,1-.128-.046.093.093,0,0,1-.087-.087.388.388,0,0,1-.046-.219.337.337,0,0,1,.173-.173c.132-.046.173-.086.26-.046.091,0,.132.046.178.132a.16.16,0,0,1,.041.128c0,.046-.041.086-.087.132.087,0,.132,0,.173.046l.132.132a.524.524,0,0,1,.046.26c-.046.087-.132.128-.219.219a.586.586,0,0,1-.264.041.406.406,0,0,1-.214-.173c0-.087-.046-.132-.046-.173C268.329,754.522,268.329,754.477,268.37,754.436Zm-.041-.223a.094.094,0,0,0,.087.091h.087c.041-.046.041-.046.041-.091a.077.077,0,0,0,0-.127.141.141,0,0,0-.087-.046h-.086c-.041.046-.041.046-.041.086C268.283,754.171,268.283,754.171,268.329,754.212Zm.173.437a.21.21,0,0,0,.132.087c.041.046.041.046.087,0a.093.093,0,0,0,.087-.087v-.127c-.046-.046-.087-.087-.132-.087-.041-.046-.041-.046-.087,0a.09.09,0,0,0-.086.087Zm.783,3.351c.086-.041.173-.087.26-.041a.809.809,0,0,1,.305.346c.087.219.132.351.087.478a.222.222,0,0,1-.173.219.289.289,0,0,1-.26,0,.837.837,0,0,1-.305-.346.67.67,0,0,1-.087-.483C269.112,758.087,269.2,758.046,269.285,758Zm.086.132c-.046,0-.046.041-.086.041v.132c.041.046.041.132.132.219a.672.672,0,0,0,.127.26c.046.046.046.046.087.046h.087a.045.045,0,0,1,.046-.046V758.7c-.046-.087-.046-.173-.132-.26a.739.739,0,0,0-.127-.264c-.046,0-.046-.041-.087-.041Zm-.478.824-.173-.346-.046.478Z" transform="translate(-1.21 -1.171)" fill="#fff" fill-rule="evenodd"/>
    </g>
    <g id="Group_117" data-name="Group 117" transform="matrix(0.899, 0.438, -0.438, 0.899, -908.048, 159.088)">
      <g id="Group_80" data-name="Group 80" transform="translate(112.415 517.335)">
        <path id="Path_22" data-name="Path 22" d="M-37.96,554.888l10.6,13.646a8.8,8.8,0,0,0,1.035-11.575A8.834,8.834,0,0,0-37.96,554.888Z" transform="translate(55.296 -529.055)" fill="#6c6c6a" fill-rule="evenodd"/>
        <path id="Path_23" data-name="Path 23" d="M-33.18,539.756l8.145,6.332a7.081,7.081,0,0,0,5.047,1.231,6.676,6.676,0,0,0,4.526-2.584l.386-.521a6.976,6.976,0,0,0,.967-6.271,6.271,6.271,0,0,0-2.388-3.234l-8.152-6.339Z" transform="translate(53.75 -520.905)" fill="#67cdfd" fill-rule="evenodd"/>
        <path id="Path_24" data-name="Path 24" d="M-47.774,520.085l-.386.447a6.917,6.917,0,0,0-.967,6.339A6.406,6.406,0,0,0-46.8,530.1l7.5,5.629,8.47-11.447-7.435-5.629A6.811,6.811,0,0,0-47.774,520.085Z" transform="translate(59.028 -517.335)" fill="#6c6c6a" fill-rule="evenodd"/>
        <path id="Path_25" data-name="Path 25" d="M-63.2,554.513l15.844-6.664a8.7,8.7,0,0,0-10.926-4.005A8.707,8.707,0,0,0-63.2,554.513Z" transform="translate(63.585 -525.703)" fill="#67cdfd" fill-rule="evenodd"/>
        <path id="Path_26" data-name="Path 26" d="M-30.939,570.918a8.67,8.67,0,0,1-11.575-2A8.733,8.733,0,0,1-41.48,557.34Z" transform="translate(57.327 -530.276)" fill="#67cdfd" fill-rule="evenodd"/>
        <path id="Path_27" data-name="Path 27" d="M-47.144,554.849l-.521.521a9.449,9.449,0,0,0-2.909,7.76l-.386.189a8.837,8.837,0,0,1-11-4.005l15.912-6.664a7.4,7.4,0,0,1,.257,1.292c-.061,0-.129.068-.257.135l-.582.318Z" transform="translate(63.059 -528.759)" fill="#6c6c6a" fill-rule="evenodd"/>
      </g>
    </g>
    <g id="Group_118" data-name="Group 118" transform="matrix(0.899, 0.438, -0.438, 0.899, -637.067, 338.524)">
      <g id="Group_78" data-name="Group 78" transform="translate(385.2 632.85)">
        <path id="Path_77" data-name="Path 77" d="M393.482,649.3l2.41-8.934h2.115l4.175,15.574,1.525-5.817,1.064-.824h3.99l2.41-8.934h2.115l2.41,8.934h6.942a16.688,16.688,0,0,0,.756-4.882c0-6.4-4.937-11.572-10.987-11.572a10.991,10.991,0,0,0-8.11,3.7,10.861,10.861,0,0,0-8.055-3.7A11.342,11.342,0,0,0,385.2,644.422a16.511,16.511,0,0,0,.824,4.882Z" transform="translate(-385.2 -632.85)" fill="#6c6c6a"/>
        <path id="Path_78" data-name="Path 78" d="M415.881,659.08h6.936c-4.642,10-17.456,16.46-17.456,16.46s-12.752-6.462-17.4-16.46h7.409l1.058-.824,1.586-5.817,4.175,15.58H404.3l2.41-8.94h3.941l1.051-.824,1.531-5.817,1.586,5.817Z" transform="translate(-386.263 -640.395)" fill="#67cdfd"/>
      </g>
    </g>
    <g id="Group_122" data-name="Group 122" transform="matrix(0.899, 0.438, -0.438, 0.899, -1071.173, 121.422)">
      <path id="Path_125" data-name="Path 125" d="M321.038,677.412a3.13,3.13,0,1,1,2.5-3.1A2.846,2.846,0,0,1,321.038,677.412Z" transform="translate(-13.227 -9.009)" fill-rule="evenodd"/>
      <path id="Path_126" data-name="Path 126" d="M320.535,678.316c-2.089,0-3.775-2.089-3.775-4.65,0-2.5,1.686-4.586,3.775-4.586,2.018,0,3.711,2.088,3.711,4.586C324.246,676.228,322.553,678.316,320.535,678.316Z" transform="translate(-12.723 -8.361)" fill="#67cdfd" fill-rule="evenodd"/>
      <path id="Path_127" data-name="Path 127" d="M316.109,644.51h-31.1c-1.686,0-3.443,2.766-5.193,5.461a7.65,7.65,0,0,1-4.791,3.775c-1.82.48-1.616,7.155-1.214,11.268l2.1.741c.2-3.034,2.293-5.461,4.854-5.461,2.491,0,4.586,2.427,4.784,5.461h17.273c.2-3.034,2.286-5.461,4.855-5.461,2.5,0,4.586,2.427,4.784,5.461h3.577v-13.7Z" transform="translate(0 -1.128)" fill="#727270" fill-rule="evenodd"/>
      <path id="Path_128" data-name="Path 128" d="M282.548,677c-1.348,0-2.5-1.418-2.5-3.1a2.583,2.583,0,1,1,5.059,0A2.888,2.888,0,0,1,282.548,677Z" transform="translate(-1.916 -8.865)" fill-rule="evenodd"/>
      <path id="Path_129" data-name="Path 129" d="M282.041,677.843c-2.025,0-3.711-2.032-3.711-4.593s1.686-4.65,3.711-4.65c2.089,0,3.775,2.089,3.775,4.65S284.13,677.843,282.041,677.843Z" transform="translate(-1.409 -8.22)" fill="#67cdfd" fill-rule="evenodd"/>
      <path id="Path_130" data-name="Path 130" d="M291.255,643.312v-1.348a1.166,1.166,0,0,0-1.016-1.284,1.214,1.214,0,0,0-1.009,1.284v1.348Z" transform="translate(-4.618 0)" fill="#fefefe" fill-rule="evenodd"/>
      <path id="Path_131" data-name="Path 131" d="M292.253,654.226H283.01l4.248-8.086h5Z" transform="translate(-2.787 -1.607)" fill="#fefefe" fill-rule="evenodd"/>
      <rect id="Rectangle_9" data-name="Rectangle 9" width="8.298" height="7.557" transform="translate(292.705 645.471)" fill="#fefefe"/>
      <rect id="Rectangle_10" data-name="Rectangle 10" width="9.102" height="7.557" transform="translate(303.091 645.471)" fill="#fefefe"/>
      <path id="Path_132" data-name="Path 132" d="M304.319,660.47c1.82,0,3.232,1.757,3.232,3.98,0,2.159-1.411,3.979-3.232,3.979-1.757,0-3.239-1.82-3.239-3.979C301.08,662.227,302.562,660.47,304.319,660.47Z" transform="translate(-8.107 -5.826)" fill="#fefefe" fill-rule="evenodd"/>
      <rect id="Rectangle_11" data-name="Rectangle 11" width="2.695" height="0.875" transform="translate(286.362 653.769)" fill="#fefefe"/>
      <path id="Path_133" data-name="Path 133" d="M304.274,662.77h1.277v1.552h1.284v1.616h-1.284v1.552h-1.277v-1.552H302.99v-1.616h1.284Z" transform="translate(-8.669 -6.503)" fill="#67cdfd" fill-rule="evenodd"/>
    </g>
    <g id="Group_124" data-name="Group 124" transform="matrix(0.899, 0.438, -0.438, 0.899, -815.206, 294.886)">
      <path id="Path_66" data-name="Path 66" d="M-41.56,748.98a18.091,18.091,0,0,1,12.738,5.262A17.979,17.979,0,0,1-23.56,766.98a17.945,17.945,0,0,1-5.262,12.682,17.82,17.82,0,0,1-12.738,5.255,17.54,17.54,0,0,1-12.675-5.255A17.71,17.71,0,0,1-59.56,766.98a17.744,17.744,0,0,1,5.325-12.738A17.8,17.8,0,0,1-41.56,748.98Z" transform="translate(176 0)" fill="#727270"/>
      <path id="Path_67" data-name="Path 67" d="M-29.174,756.866a15.834,15.834,0,0,0-11.25-4.636,15.935,15.935,0,0,0-11.25,4.636,15.8,15.8,0,0,0-4.637,11.248,16.042,16.042,0,0,0,4.637,11.255A15.934,15.934,0,0,0-40.424,784a15.834,15.834,0,0,0,11.25-4.636,16.073,16.073,0,0,0,4.637-11.255A15.828,15.828,0,0,0-29.174,756.866Z" transform="translate(174.864 -1.136)" fill="#fefefe"/>
      <path id="Path_68" data-name="Path 68" d="M-49.356,767.91a4.433,4.433,0,0,1,4.416,4.416,4.445,4.445,0,0,1-4.416,4.474,4.458,4.458,0,0,1-4.474-4.474A4.445,4.445,0,0,1-49.356,767.91Z" transform="translate(173.996 -5.196)" fill="#67cdfd"/>
      <path id="Path_69" data-name="Path 69" d="M-37.665,754.81a1.953,1.953,0,0,1,1.99,1.932,1.962,1.962,0,0,1-1.99,1.99,1.952,1.952,0,0,1-1.925-1.99A1.943,1.943,0,0,1-37.665,754.81Z" transform="translate(170.262 -2.039)" fill="#67cdfd"/>
      <path id="Path_70" data-name="Path 70" d="M-36.245,782.63a3.89,3.89,0,0,1,3.857,3.915,3.873,3.873,0,0,1-3.857,3.857,3.886,3.886,0,0,1-3.915-3.857A3.9,3.9,0,0,1-36.245,782.63Z" transform="translate(170.609 -8.964)" fill="#67cdfd"/>
      <path id="Path_71" data-name="Path 71" d="M-31.973,771.45a1.324,1.324,0,0,1,1.366,1.3,1.38,1.38,0,0,1-1.366,1.372,1.331,1.331,0,0,1-1.307-1.372A1.274,1.274,0,0,1-31.973,771.45Z" transform="translate(168.383 -6.513)" fill="#67cdfd"/>
      <path id="Path_72" data-name="Path 72" d="M-24.189,764.18a.913.913,0,0,1,.93.93.915.915,0,0,1-.93.936.908.908,0,0,1-.871-.936A.906.906,0,0,1-24.189,764.18Z" transform="translate(165.943 -4.429)" fill="#67cdfd"/>
      <path id="Path_73" data-name="Path 73" d="M-20.329,771.83a3.318,3.318,0,0,1,3.3,3.3,3.317,3.317,0,0,1-3.3,3.291,3.311,3.311,0,0,1-3.291-3.291A3.313,3.313,0,0,1-20.329,771.83Z" transform="translate(166.24 -6.421)" fill="#67cdfd"/>
      <circle id="Ellipse_5" data-name="Ellipse 5" cx="1.366" cy="1.366" r="1.366" transform="translate(131.753 760.358)" fill="#67cdfd"/>
    </g>
    <g id="Group_126" data-name="Group 126" transform="matrix(0.899, 0.438, -0.438, 0.899, -684.43, 866.151)">
      <path id="Path_90" data-name="Path 90" d="M84.053,313.505l-13.065-7.986-.227-.167c-2.853-5.825-10.1-10.159-15.578-11.3-2.107-.4-3.874-.4-5.073.227a2.831,2.831,0,0,0-1.653,2.966c.281,3.253,3.993,7.873,11.866,15.978,2.053,2.053,3.653,4.847,6.219,7.013s5.473,4.566,8.786,6.959l-.627.8c-3.313-2.453-6.219-4.733-8.786-7.019-2.567-2.167-4.226-4.96-6.333-7.127-7.932-8.332-11.872-13.179-12.1-16.491a3.832,3.832,0,0,1,2.28-4.047,10.479,10.479,0,0,1,5.593-.173c5.706,1.14,13.125,5.706,16.259,11.579l12.952,7.986Z" transform="translate(0)" fill="#727270" fill-rule="evenodd"/>
      <path id="Path_91" data-name="Path 91" d="M60.72,299.06a1.725,1.725,0,0,1,1.826,1.54,1.584,1.584,0,0,1-1.826,1.313c-1.027,0-1.88-.567-1.767-1.426A1.661,1.661,0,0,1,60.72,299.06Z" transform="translate(-4.624 -2.5)" fill="#67cdfd" fill-rule="evenodd"/>
    </g>
    <g id="Group_127" data-name="Group 127" transform="matrix(0.899, 0.438, -0.438, 0.899, -662.505, 366.871)">
      <path id="Path_168" data-name="Path 168" d="M418,771.166a10,10,0,1,1-10.681.285V748.739a5.339,5.339,0,0,1,5.307-5.3,5.4,5.4,0,0,1,5.374,5.3Z" fill="#6c6c6a"/>
      <path id="Path_169" data-name="Path 169" d="M413.818,788.171a7.3,7.3,0,0,0,2.219-14.257v-5.659h-.712v-1.147h.712v-3.156h-.712v-1.072h.712v-2.863h-.712v-1.147h.712V749.7a2.433,2.433,0,0,0-2.5-2.436,2.482,2.482,0,0,0-2.511,2.436v24.436a7.212,7.212,0,0,0-4.512,6.739A7.34,7.34,0,0,0,413.818,788.171Z" transform="translate(-0.909 -0.957)" fill="#67cdfd"/>
      <path id="Path_170" data-name="Path 170" d="M416.159,779.95a5.063,5.063,0,0,1,3.44,4.8,5.015,5.015,0,1,1-10.029,0,4.9,4.9,0,0,1,3.081-4.587l.645-.285V764.037a1.079,1.079,0,0,1,2.151,0v15.7Z" transform="translate(-1.675 -4.909)" fill="#6c6c6a"/>
    </g>
    <rect id="Rectangle_36" data-name="Rectangle 36" width="111" height="116" rx="44" transform="matrix(0.899, 0.438, -0.438, 0.899, -987.554, 827.186)" fill="#fff"/>
    <rect id="Rectangle_50" data-name="Rectangle 50" width="111" height="116" rx="44" transform="matrix(0.899, 0.438, -0.438, 0.899, -388.963, 256.872)" fill="#fff"/>
    <g id="Group_95" data-name="Group 95" transform="matrix(0.899, 0.438, -0.438, 0.899, -797.349, 19.193)">
      <path id="Path_80" data-name="Path 80" d="M545.463,66.6c1.753,0,2.341,3.182,1.254,7.04s-3.349,6.952-5.111,6.952-2.341-3.095-1.262-6.952C541.352,69.782,543.7,66.6,545.463,66.6Z" transform="translate(-3.892)" fill="#67cdfd" fill-rule="evenodd"/>
      <path id="Path_81" data-name="Path 81" d="M544.412,80.081a3.481,3.481,0,0,0-.245-1.341c-1.254,2.937-5.532,8.048-7.793,10.31a4.238,4.238,0,0,0-5.619.587L508.8,113.351a2.1,2.1,0,0,0,.079,2.928l3.358,3.1a2.1,2.1,0,0,0,2.937-.088L537.127,95.5a4.072,4.072,0,0,0,.587-4.944C540.651,87.621,544.333,83.351,544.412,80.081Z" transform="translate(0 -1.497)" fill="#727270" fill-rule="evenodd"/>
    </g>
    <g id="Group_100" data-name="Group 100" transform="matrix(0.899, 0.438, -0.438, 0.899, -462.375, 105.111)">
      <path id="Path_93" data-name="Path 93" d="M187.906,320.28H193.9a.377.377,0,0,1,.4.4v2.959a.377.377,0,0,1-.4.4h-5.993a.442.442,0,0,1-.476-.4v-2.959A.442.442,0,0,1,187.906,320.28Z" transform="translate(-2.778 -5.1)" fill="#221f20" fill-rule="evenodd"/>
      <path id="Path_94" data-name="Path 94" d="M198.706,320.28H204.7a.377.377,0,0,1,.4.4v2.959a.377.377,0,0,1-.4.4h-5.993a.447.447,0,0,1-.476-.4v-2.959A.447.447,0,0,1,198.706,320.28Z" transform="translate(-4.552 -5.1)" fill="#221f20" fill-rule="evenodd"/>
      <path id="Path_95" data-name="Path 95" d="M177.121,320.28h5.993a.447.447,0,0,1,.476.4v2.959a.447.447,0,0,1-.476.4h-5.993a.377.377,0,0,1-.4-.4v-2.959A.377.377,0,0,1,177.121,320.28Z" transform="translate(-1.02 -5.1)" fill="#221f20" fill-rule="evenodd"/>
      <rect id="Rectangle_8" data-name="Rectangle 8" width="7.589" height="9.185" transform="translate(183.933 335.315)" fill="#67cdfd"/>
      <path id="Path_96" data-name="Path 96" d="M190.61,331.18a2.528,2.528,0,0,1,2.716,2.24v8.149H187.81V333.42A2.608,2.608,0,0,1,190.61,331.18Z" transform="translate(-2.841 -6.89)" fill="#67cdfd" fill-rule="evenodd"/>
      <path id="Path_97" data-name="Path 97" d="M170.51,289.22h34.435v34.193a17.367,17.367,0,0,1-11.267,16.215v-6.469h-1.12V326.53c0-2.558-2.4-4.313-4.789-4.313-2.482,0-4.881,1.755-4.881,4.313v6.628h-1.036v6.469a17.328,17.328,0,0,1-11.342-16.215Z" fill="#727270" fill-rule="evenodd"/>
      <path id="Path_98" data-name="Path 98" d="M177.871,296.87h22.291a.913.913,0,0,1,.953.953v13.105a.9.9,0,0,1-.953.878H177.871a.965.965,0,0,1-.961-.878V297.823A.97.97,0,0,1,177.871,296.87Z" transform="translate(-1.051 -1.256)" fill="#fff" fill-rule="evenodd"/>
      <path id="Path_99" data-name="Path 99" d="M190.768,332.23c1.12,0,2.073.56,2.073,1.279s-.953,1.279-2.073,1.279-2-.56-2-1.279S189.648,332.23,190.768,332.23Z" transform="translate(-2.998 -7.062)" fill="#fefefe" fill-rule="evenodd"/>
    </g>
    <g id="Group_116" data-name="Group 116" transform="matrix(0.899, 0.438, -0.438, 0.899, -725.535, 242.938)">
      <path id="Path_85" data-name="Path 85" d="M77.41,543.09h1.264a1.426,1.426,0,1,1,0,2.849h-.71A5.129,5.129,0,0,0,77.41,543.09Z" transform="translate(-2.164 -4.476)" fill="#727270" fill-rule="evenodd"/>
      <path id="Path_86" data-name="Path 86" d="M68.04,543.81l.24-12.314a13.439,13.439,0,0,1,3.791-.636l2.841,9.87c.553,1.181.942,2.684.71,3a.081.081,0,0,1-.083.083Z" transform="translate(-0.533 -2.347)" fill="#67cdfd" fill-rule="evenodd"/>
      <path id="Path_87" data-name="Path 87" d="M71.206,547.576c0,6.946-.083,13.817-.4,20.763-.157,3.477,5.922,3.477,6.087,0,.314-6.236.388-7.97.388-14.206h.867c0,6.236.083,7.97.322,14.206.157,3.477,6.236,3.477,6.07,0-.314-6.946-.388-13.817-.388-20.763V534.311h.785v12.314a1.746,1.746,0,0,0,3.477,0V535.418c-.479-4.658-6.079-4.658-6.318-4.658H73.262l2.684,9.481h1.577a2.093,2.093,0,1,1,0,4.179H71.206Z" transform="translate(-1.014 -2.329)" fill="#727270" fill-rule="evenodd"/>
      <path id="Path_88" data-name="Path 88" d="M78,517.38a4.99,4.99,0,1,1-5.368,4.972A5.153,5.153,0,0,1,78,517.38Z" transform="translate(-1.332)" fill="#727270" fill-rule="evenodd"/>
      <path id="Path_89" data-name="Path 89" d="M66.714,544.026h-.231a1.73,1.73,0,0,1-1.024-.314,1.63,1.63,0,0,1-.479-1.189v-7.582a4.231,4.231,0,0,1,1.974-2.841Z" transform="translate(0 -2.563)" fill="#727270" fill-rule="evenodd"/>
    </g>
    <g id="Group_121" data-name="Group 121" transform="matrix(0.899, 0.438, -0.438, 0.899, -841.018, 240.708)">
      <path id="Path_74" data-name="Path 74" d="M203.208,671.521l-4.767-11.038a2.955,2.955,0,0,0-3.345-1.728l-9.659,2.271V650.643a2.924,2.924,0,1,0-5.847,0v14.015a3.029,3.029,0,0,0,1.129,2.328,2.977,2.977,0,0,0,2.446.543l10.857-2.508,3.819,8.823a2.9,2.9,0,0,0,2.683,1.8,2.813,2.813,0,0,0,1.192-.243A2.926,2.926,0,0,0,203.208,671.521Z" transform="translate(-5.715 -6.505)" fill="#6c6c6a"/>
      <path id="Path_75" data-name="Path 75" d="M187.435,634.953a4.593,4.593,0,0,0-9.185,0,4.593,4.593,0,0,0,9.185,0Z" transform="translate(-5.211)" fill="#6c6c6a"/>
      <path id="Path_76" data-name="Path 76" d="M184.907,670.934c.836-.119,1.735-.3,2.627-.474.119.356.356.711.474,1.073a13.115,13.115,0,0,1-10.8,6.022,12.908,12.908,0,0,1-12.823-12.942,13.05,13.05,0,0,1,7.039-11.213v3.4a10.006,10.006,0,0,0-4.112,7.931,9.884,9.884,0,0,0,17.59,6.2Z" transform="translate(0 -8.663)" fill="#67cdfd"/>
    </g>
  </g>
</svg>
