<svg xmlns="http://www.w3.org/2000/svg" xmlns:xlink="http://www.w3.org/1999/xlink" width="318.377" height="193.835" viewBox="0 0 318.377 193.835">
  <defs>
    <linearGradient id="linear-gradient" y1="0.5" x2="1" y2="0.5" gradientUnits="objectBoundingBox">
      <stop offset="0" stop-color="#0370b5"/>
      <stop offset="0.068" stop-color="#157ebb"/>
      <stop offset="0.164" stop-color="#2390c3"/>
      <stop offset="0.269" stop-color="#2e9fca"/>
      <stop offset="0.386" stop-color="#37abcf"/>
      <stop offset="0.521" stop-color="#3db4d2"/>
      <stop offset="0.69" stop-color="#40b9d4"/>
      <stop offset="1" stop-color="#41bbd4"/>
    </linearGradient>
    <linearGradient id="linear-gradient-2" x1="0.981" y1="0.561" x2="-0.009" y2="0.436" xlink:href="#linear-gradient"/>
    <linearGradient id="linear-gradient-3" x1="0.429" y1="0.015" x2="0.567" y2="0.953" xlink:href="#linear-gradient"/>
    <linearGradient id="linear-gradient-5" y1="0.5" x2="1" y2="0.5" gradientUnits="objectBoundingBox">
      <stop offset="0" stop-color="#41bbd4"/>
      <stop offset="0.093" stop-color="#68c4dc"/>
      <stop offset="0.206" stop-color="#84cee5"/>
      <stop offset="0.333" stop-color="#99d6ec"/>
      <stop offset="0.48" stop-color="#a7ddf1"/>
      <stop offset="0.663" stop-color="#afe1f5"/>
      <stop offset="1" stop-color="#b2e2f6"/>
    </linearGradient>
    <linearGradient id="linear-gradient-6" y1="0.5" x2="1" y2="0.5" gradientUnits="objectBoundingBox">
      <stop offset="0" stop-color="#0f172b"/>
      <stop offset="0.069" stop-color="#1d2441"/>
      <stop offset="0.15" stop-color="#292f57"/>
      <stop offset="0.238" stop-color="#32376b"/>
      <stop offset="0.334" stop-color="#393d7c"/>
      <stop offset="0.441" stop-color="#3d4289"/>
      <stop offset="0.564" stop-color="#404593"/>
      <stop offset="0.718" stop-color="#41479a"/>
      <stop offset="1" stop-color="#42489e"/>
    </linearGradient>
  </defs>
  <g id="Layer_1" transform="translate(-102.006 -79.504)">
    <path id="Path_230" data-name="Path 230" d="M775.478,281.706c-2.723,4.254-7.026,6.357-9.612,4.7s-2.468-6.445.26-10.7,7.026-6.358,9.608-4.7S778.206,277.452,775.478,281.706Z" transform="translate(-358.902 -103.518)" fill="#eab780"/>
    <path id="Path_231" data-name="Path 231" d="M773.636,272.95c2.48-2.31,5.385-3.184,7.322-1.944,2.586,1.657,2.471,6.446-.257,10.7" transform="translate(-364.126 -103.518)" fill="#5063ad"/>
    <path id="Path_232" data-name="Path 232" d="M780.837,304.971a3.089,3.089,0,0,1-3.226,2.931h0a3.088,3.088,0,0,1-3.221-2.931V292.183a3.089,3.089,0,0,1,3.221-2.934h0a3.09,3.09,0,0,1,3.226,2.934Z" transform="translate(-364.534 -113.714)" fill="#eab780"/>
    <path id="Path_233" data-name="Path 233" d="M765.612,488.471l-9.109,3.649v1.623h14.874l-.769-7.7H766.23Z" transform="translate(-354.837 -220.403)" fill="#1090d0"/>
    <path id="Path_234" data-name="Path 234" d="M102.006,160.89l38.718,128.376H309.795L274.974,160.89Z" transform="translate(0 -44.124)" fill="url(#linear-gradient)"/>
    <path id="Path_235" data-name="Path 235" d="M397.595,452.189a2.517,2.517,0,0,1-2.517,2.517H189.087a2.518,2.518,0,0,1-2.517-2.517V443.8a2.517,2.517,0,0,1,2.517-2.517h205.99a2.518,2.518,0,0,1,2.517,2.517v8.391Z" transform="translate(-45.847 -196.138)" fill="url(#linear-gradient-2)"/>
    <path id="Path_236" data-name="Path 236" d="M124.26,174.635H284.1l28.529,114.532H159.082Z" transform="translate(-12.065 -51.576)" fill="url(#linear-gradient-3)"/>
    <path id="Path_237" data-name="Path 237" d="M141.671,228.086H299l17.2,66.986H160.97Z" transform="translate(-21.504 -80.554)" fill="#9fd1f1"/>
    <path id="Path_238" data-name="Path 238" d="M138.922,181.048l59.154.42,3.776,15.9L142.7,195.935Z" transform="translate(-20.014 -55.052)" fill="#fefef9"/>
    <path id="Path_239" data-name="Path 239" d="M172.826,245.191h72.369l3.147,6.713H174.923Z" transform="translate(-38.395 -89.828)" fill="url(#linear-gradient)"/>
    <path id="Path_240" data-name="Path 240" d="M181.073,268.1h71.74v6.712H183.59Z" transform="translate(-42.866 -102.247)" fill="#2cbec2"/>
    <path id="Path_241" data-name="Path 241" d="M217.725,293.754h51.393v5.874H221.148Z" transform="translate(-62.737 -116.156)" fill="#fef4f8"/>
    <path id="Path_242" data-name="Path 242" d="M760.586,368.306s.552,46.628,7.244,55.751h5.68s-3.194-18.041-2-24.528,5.025-28.794,2.6-31.222S760.586,368.306,760.586,368.306Z" transform="translate(-357.051 -155.99)" fill="#07837b"/>
    <path id="Path_243" data-name="Path 243" d="M760.891,371.811s-1.737,47.189,4.955,56.422H775.3s-6.969-18.258-5.778-24.823,5.025-29.141,2.6-31.6S760.891,371.811,760.891,371.811Z" transform="translate(-357.106 -157.883)" fill="#05aaae"/>
    <path id="Path_244" data-name="Path 244" d="M774.251,393.757,772.43,397.2l.911,4.865.821-4.156,3.767-5.8-3.182-.386Z" transform="translate(-363.472 -169.274)" fill="#fab390"/>
    <path id="Path_245" data-name="Path 245" d="M771.747,313.2c2.231-1.216,1.622-.438,1.622-.438a81.242,81.242,0,0,1,3.244,35.711s-7.3-1.013-10.542-5.675-5.676-1.825-5.676-1.825-1.217-26.15,6.572-29.031c0,0-.013,2.677,1.877,1.664S771.747,313.2,771.747,313.2Z" transform="translate(-356.91 -126.016)" fill="#85d4ee"/>
    <path id="Path_246" data-name="Path 246" d="M779.247,353.091l-2.839-1.621c4.052-14.6,0-36.554,0-36.554l5.68-1.185s2.027,17.67,1.621,20.71S779.247,353.091,779.247,353.091Z" transform="translate(-365.628 -126.987)" fill="#ace0f4"/>
    <rect id="Rectangle_93" data-name="Rectangle 93" width="13.215" height="3.289" transform="translate(154.988 250.598)" fill="#0d0d19"/>
    <rect id="Rectangle_94" data-name="Rectangle 94" width="6.608" height="3.289" transform="translate(195.696 250.212)" fill="#0d0d19"/>
    <circle id="Ellipse_9" data-name="Ellipse 9" cx="2.141" cy="2.141" r="2.141" transform="translate(222.36 249.715)" fill="#0d0d19"/>
    <circle id="Ellipse_10" data-name="Ellipse 10" cx="2.141" cy="2.141" r="2.141" transform="translate(230.535 249.715)" fill="#0d0d19"/>
    <path id="Path_247" data-name="Path 247" d="M511.359,195.613l-1.233-.255a77.035,77.035,0,0,0,0-25.982l1.239-.223A78.408,78.408,0,0,1,511.359,195.613Z" transform="translate(-221.262 -48.604)" fill="#262262"/>
    <path id="Path_248" data-name="Path 248" d="M707.211,316.758s8.271-12.5,12.693-12.308,8.077,7.5,6.73,11.347-6.54,5.575-8.078,5.383-10.384,1.155-10.384,1.155Z" transform="translate(-328.113 -121.954)" fill="#d67e4d"/>
    <path id="doctor_hand_2" d="M463.649,204.35s54.329,59.469,98.8,51.917l4.2,13.006s-71.321,2.517-110.757-25.173,2.517-44.889,2.517-44.889Z" transform="translate(-182.697 -64.9)" fill="url(#linear-gradient-5)"/>
    <path id="Path_249" data-name="Path 249" d="M434.662,208.559l27.269,6.313-17.2,35.241Z" transform="translate(-180.35 -69.968)" fill="#fff"/>
    <path id="Path_250" data-name="Path 250" d="M447.482,421.44s5.474-.175,6.219.482,6.219,6.308,6.219,6.308l-.262,1.1-11.125-.307-.482-1.964-2.409-1.146Z" transform="translate(-186.303 -185.37)" fill="#d67d51"/>
    <path id="Path_251" data-name="Path 251" d="M427.331,184.842s6.923,1.154,9.021-3.041l8.8,13.2,1.691,2.536L435.891,206.3l-4.95-18.159s-.19-.652-.413-1.4S427.331,184.842,427.331,184.842Z" transform="translate(-176.376 -55.461)" fill="#f1f2f2"/>
    <path id="Path_252" data-name="Path 252" d="M455.184,211.893l4.539.789,4.169,8.354-6.011,3.157.349,7.7L450.418,245.7l-3.72-3.617s1.908-13.025,4.605-15.328-1.184-10.2-1.184-10.2Z" transform="translate(-186.876 -71.775)" fill="url(#linear-gradient-6)"/>
    <path id="doctor_chest_1" d="M345.592,296.368c39.646-61.042,35.87-89.675,35.87-89.675l-5.979-8.181-17.62,33.667c.315-11.013-9.754-43.736-9.754-43.736s-7.866,1.888-10.069,1.416-7.866,1.731-7.866,1.731-23.913,45.939-32.409,55.064-21.4,49.944-21.4,49.944Z" transform="translate(-94.531 -59.062)" fill="#bde6f4"/>
    <path id="doctor1_hand" d="M365.151,211.153c-.839,9.229-15.1,36.5-12.586,45.309s16.362,39.016,31.046,39.437l-2.937,10.069s-82.229-39.437-49.5-89.78c0,0,19.9-25.859,27.778-23.418Z" transform="translate(-120.069 -61.319)" fill="#bde6f4" stroke="#41bbd4" stroke-miterlimit="10" stroke-width="0.2"/>
    <path id="Path_253" data-name="Path 253" d="M447.146,186.382" transform="translate(-187.118 -57.944)" fill="#0d9a85"/>
    <path id="Path_254" data-name="Path 254" d="M471.887,212.841" transform="translate(-200.532 -72.289)" fill="none" stroke="#0d9a85" stroke-miterlimit="10" stroke-width="1"/>
    <path id="Path_255" data-name="Path 255" d="M473.605,201.6l3.776,8.075,5.975-10.484-9.751-8.919Z" transform="translate(-201.463 -60.055)" fill="#f1f2f2"/>
    <path id="doctor_nck" d="M468.559,152.745,459.906,134.5l-4.248,11.8c-2.36,10.226-6.45,10.7-6.45,10.7s7.079,15.575,10.541,15.89c0,0,1.574-11.485,3.147-14.946S468.559,152.745,468.559,152.745Z" transform="translate(-188.236 -29.814)" fill="#b96c50"/>
    <path id="doctor_head" d="M490.654,98.364c-6.963-3.611-17.167,2.257-22.792,13.106-.052.1-.094.2-.145.3-.359-2.414-1.644-4.209-3.187-4.209-1.82,0-3.3,2.488-3.3,5.556s1.476,5.556,3.3,5.556a2.032,2.032,0,0,0,.625-.106c-2.151,8.457-.322,16.255,5.128,19.081,6.963,3.61,17.167-2.258,22.793-13.106S497.617,101.974,490.654,98.364Z" transform="translate(-194.757 -9.648)" fill="#d67d50"/>
    <path id="Path_256" data-name="Path 256" d="M493.978,80.611c14.946,3.618,11.327,22.812,11.327,22.812a62.369,62.369,0,0,1-5.349,4.937C496.5,111.251,484.167,97.6,484.167,97.6l-9.855,7.08-1.384-2.556-.211-1.13-.117-.63-1.753-1.336s1.374-19.925,16.681-19.52A19.054,19.054,0,0,1,493.978,80.611Z" transform="translate(-199.968 0)" fill="#0e4b81"/>
    <ellipse id="Ellipse_11" data-name="Ellipse 11" cx="3.429" cy="5.364" rx="3.429" ry="5.364" transform="translate(266.478 97.917)" fill="#d67d50"/>
    <path id="Path_257" data-name="Path 257" d="M599.8,281.951c-20.093,0-59.946-5.429-92.577-43.45l.955-.819c44.954,52.377,103.7,42.274,104.291,42.163l.229,1.239A81.536,81.536,0,0,1,599.8,281.951Z" transform="translate(-219.691 -85.757)" fill="#42489e"/>
    <path id="Path_258" data-name="Path 258" d="M487.876,224.588s7.394,2.031,9.569-1.594,4.475,4.166,3.769,7.1-8.41,1.74-9.714,0S487.876,224.588,487.876,224.588Z" transform="translate(-209.2 -77.283)" fill="#262262"/>
    <circle id="Ellipse_12" data-name="Ellipse 12" cx="1.885" cy="1.885" r="1.885" transform="translate(267.946 102.504)" fill="#262262"/>
    <path id="Path_259" data-name="Path 259" d="M484.444,181.458c-.52,0-1.774-.65-5.663-2.689-10.183-5.337-11.543-43.3-11.6-44.916l1.257-.042c.013.388,1.385,38.844,10.922,43.844,1.042.546,1.87.973,2.53,1.31l.227-.381c2.778,1.654,3.119,1.889,2.77,2.515C484.772,181.312,484.69,181.458,484.444,181.458Z" transform="translate(-197.983 -29.443)" fill="#262262"/>
    <path id="Path_260" data-name="Path 260" d="M745.948,319.329c0,4.112-1.926,7.446-4.3,7.446s-4.3-3.333-4.3-7.446,1.926-7.447,4.3-7.447S745.948,315.216,745.948,319.329Z" transform="translate(-344.452 -125.984)" fill="#5063ad" stroke="#262262" stroke-miterlimit="10" stroke-width="2"/>
  </g>
</svg>
