<svg xmlns="http://www.w3.org/2000/svg" width="32.422" height="13.588" viewBox="0 0 32.422 13.588">
  <path id="password_eye" data-name="password eye" d="M233.024,312.437c-8.554,0-15.364-6.032-15.65-6.288l-.562-.505.562-.505c.286-.257,7.1-6.288,15.65-6.288s15.363,6.032,15.649,6.288l.562.505-.562.505C248.387,306.4,241.577,312.437,233.024,312.437ZM218.9,305.643c1.827,1.436,7.511,5.435,14.127,5.435s12.3-4,14.126-5.435c-1.827-1.436-7.511-5.435-14.126-5.435S220.725,304.206,218.9,305.643Zm14.127,6.794a6.794,6.794,0,1,1,6.794-6.794A6.8,6.8,0,0,1,233.024,312.437Zm0-12.229a5.435,5.435,0,1,0,5.435,5.435A5.442,5.442,0,0,0,233.024,300.207Zm0,4.058a1.376,1.376,0,1,0,1.375,1.376A1.376,1.376,0,0,0,233.024,304.266Z" transform="translate(-216.813 -298.849)" fill="#6c929a"/>
</svg>
