<svg xmlns="http://www.w3.org/2000/svg" xmlns:xlink="http://www.w3.org/1999/xlink" width="178.198" height="161.245" viewBox="0 0 178.198 161.245">
  <defs>
    <linearGradient id="linear-gradient" x1="0.5" x2="0.5" y2="1" gradientUnits="objectBoundingBox">
      <stop offset="0" stop-color="#01d4ff"/>
      <stop offset="1" stop-color="#8ce1f2"/>
    </linearGradient>
    <filter id="Ellipse_6" x="119.099" y="0" width="33" height="33" filterUnits="userSpaceOnUse">
      <feOffset dx="1" dy="1" input="SourceAlpha"/>
      <feGaussianBlur stdDeviation="0.5" result="blur"/>
      <feFlood flood-opacity="0.161"/>
      <feComposite operator="in" in2="blur"/>
      <feComposite in="SourceGraphic"/>
    </filter>
  </defs>
  <g id="Group_161" data-name="Group 161" transform="translate(384.599 -245.5)">
    <g id="Group_157" data-name="Group 157" transform="translate(839 -617)">
      <path id="Path_558" data-name="Path 558" d="M120.327,207.975a28.8,28.8,0,0,1-18.114-6.339.786.786,0,1,1,.978-1.23,27.523,27.523,0,0,0,38.675-4.376l.632.466.613.491s-.019.025-.022.025A28.93,28.93,0,0,1,120.327,207.975Z" transform="translate(-1314.346 714.27)" fill="#cff2f9" stroke="#cff2f9" stroke-linecap="round" stroke-linejoin="round" stroke-width="1" opacity="0.4"/>
      <path id="Path_559" data-name="Path 559" d="M70.746,93.521a.787.787,0,0,1-.733-.5A29.105,29.105,0,0,1,68,82.353a28.775,28.775,0,0,1,6.345-18.117,29.082,29.082,0,0,1,12.1-8.947.786.786,0,0,1,.576,1.463,27.514,27.514,0,0,0-11.445,8.462,27.225,27.225,0,0,0-6,17.139,27.552,27.552,0,0,0,1.906,10.095.786.786,0,0,1-.447,1.019A.768.768,0,0,1,70.746,93.521Z" transform="translate(-1291.099 810.774)" fill="#cff2f9" stroke="#cff2f9" stroke-width="1" opacity="0.4"/>
      <path id="Path_560" data-name="Path 560" d="M195.931,83.745a.725.725,0,0,1-.116-.009.786.786,0,0,1-.664-.893,27.714,27.714,0,0,0,.3-4.052A27.547,27.547,0,0,0,172,51.544a.786.786,0,1,1,.233-1.554,29.114,29.114,0,0,1,24.789,28.8,29.584,29.584,0,0,1-.315,4.285A.788.788,0,0,1,195.931,83.745Z" transform="translate(-1361.923 814.375)" fill="#01d4ff" stroke="#01d4ff" stroke-width="1"/>
      <ellipse id="Ellipse_14" data-name="Ellipse 14" cx="22.908" cy="22.908" rx="22.908" ry="22.908" transform="translate(-1217.214 869.844)" fill="url(#linear-gradient)"/>
      <g id="Group_145" data-name="Group 145" transform="translate(-1197 887)">
        <line id="Line_2" data-name="Line 2" x2="6" y2="6" fill="none" stroke="#fff" stroke-linecap="round" stroke-width="2"/>
        <line id="Line_3" data-name="Line 3" y1="6" x2="6" transform="translate(0 6)" fill="none" stroke="#fff" stroke-linecap="round" stroke-width="2"/>
      </g>
    </g>
    <g id="Group_158" data-name="Group 158" transform="translate(292 -516)">
      <path id="Path_558-2" data-name="Path 558" d="M120.327,207.975a28.8,28.8,0,0,1-18.114-6.339.786.786,0,1,1,.978-1.23,27.523,27.523,0,0,0,38.675-4.376l.632.466.613.491s-.019.025-.022.025A28.93,28.93,0,0,1,120.327,207.975Z" transform="translate(-767.346 714.27)" fill="#01d4ff" stroke="#01d4ff" stroke-linecap="round" stroke-linejoin="round" stroke-width="1"/>
      <path id="Path_559-2" data-name="Path 559" d="M70.746,93.521a.787.787,0,0,1-.733-.5A29.105,29.105,0,0,1,68,82.353a28.775,28.775,0,0,1,6.345-18.117,29.082,29.082,0,0,1,12.1-8.947.786.786,0,0,1,.576,1.463,27.514,27.514,0,0,0-11.445,8.462,27.225,27.225,0,0,0-6,17.139,27.552,27.552,0,0,0,1.906,10.095.786.786,0,0,1-.447,1.019A.768.768,0,0,1,70.746,93.521Z" transform="translate(-744.099 810.774)" fill="#cff2f9" stroke="#cff2f9" stroke-width="1" opacity="0.4"/>
      <path id="Path_560-2" data-name="Path 560" d="M195.931,83.745a.725.725,0,0,1-.116-.009.786.786,0,0,1-.664-.893,27.714,27.714,0,0,0,.3-4.052A27.547,27.547,0,0,0,172,51.544a.786.786,0,1,1,.233-1.554,29.114,29.114,0,0,1,24.789,28.8,29.584,29.584,0,0,1-.315,4.285A.788.788,0,0,1,195.931,83.745Z" transform="translate(-814.923 814.375)" fill="#01d4ff" stroke="#01d4ff" stroke-width="1"/>
      <ellipse id="Ellipse_14-2" data-name="Ellipse 14" cx="22.908" cy="22.908" rx="22.908" ry="22.908" transform="translate(-670.214 869.844)" fill="url(#linear-gradient)"/>
      <g id="Group_145-2" data-name="Group 145" transform="translate(-650 887)">
        <line id="Line_2-2" data-name="Line 2" x2="6" y2="6" fill="none" stroke="#fff" stroke-linecap="round" stroke-width="2"/>
        <line id="Line_3-2" data-name="Line 3" y1="6" x2="6" transform="translate(0 6)" fill="none" stroke="#fff" stroke-linecap="round" stroke-width="2"/>
      </g>
    </g>
    <g id="Group_160" data-name="Group 160">
      <g transform="matrix(1, 0, 0, 1, -384.6, 245.5)" filter="url(#Ellipse_6)">
        <circle id="Ellipse_6-2" data-name="Ellipse 6" cx="15" cy="15" r="15" transform="translate(119.6 0.5)" fill="#01d4ff"/>
      </g>
      <g id="Group_130" data-name="Group 130" transform="translate(-252.923 255.154)">
        <line id="Line_2-3" data-name="Line 2" x1="6" y2="6" transform="translate(-0.077 -0.154)" fill="none" stroke="#fff" stroke-linecap="round" stroke-width="2"/>
        <line id="Line_3-3" data-name="Line 3" x1="6" y1="6" transform="translate(-0.077 5.846)" fill="none" stroke="#fff" stroke-linecap="round" stroke-width="2"/>
      </g>
    </g>
    <g id="Group_159" data-name="Group 159" transform="translate(-136 -527)">
      <path id="Path_558-3" data-name="Path 558" d="M120.327,207.975a28.8,28.8,0,0,1-18.114-6.339.786.786,0,1,1,.978-1.23,27.523,27.523,0,0,0,38.675-4.376l.632.466.613.491s-.019.025-.022.025A28.93,28.93,0,0,1,120.327,207.975Z" transform="translate(-220.346 714.27)" fill="#01d4ff" stroke="#01d4ff" stroke-linecap="round" stroke-linejoin="round" stroke-width="1"/>
      <path id="Path_559-3" data-name="Path 559" d="M70.746,93.521a.787.787,0,0,1-.733-.5A29.105,29.105,0,0,1,68,82.353a28.775,28.775,0,0,1,6.345-18.117,29.082,29.082,0,0,1,12.1-8.947.786.786,0,0,1,.576,1.463,27.514,27.514,0,0,0-11.445,8.462,27.225,27.225,0,0,0-6,17.139,27.552,27.552,0,0,0,1.906,10.095.786.786,0,0,1-.447,1.019A.768.768,0,0,1,70.746,93.521Z" transform="translate(-197.099 810.774)" fill="#01d4ff" stroke="#01d4ff" stroke-width="1"/>
      <path id="Path_560-3" data-name="Path 560" d="M195.931,83.745a.725.725,0,0,1-.116-.009.786.786,0,0,1-.664-.893,27.714,27.714,0,0,0,.3-4.052A27.547,27.547,0,0,0,172,51.544a.786.786,0,1,1,.233-1.554,29.114,29.114,0,0,1,24.789,28.8,29.584,29.584,0,0,1-.315,4.285A.788.788,0,0,1,195.931,83.745Z" transform="translate(-267.923 814.375)" fill="#01d4ff" stroke="#01d4ff" stroke-width="1"/>
      <ellipse id="Ellipse_14-3" data-name="Ellipse 14" cx="22.908" cy="22.908" rx="22.908" ry="22.908" transform="translate(-123.214 869.844)" fill="url(#linear-gradient)"/>
      <g id="Group_145-3" data-name="Group 145" transform="translate(-103 887)">
        <line id="Line_2-4" data-name="Line 2" x2="6" y2="6" fill="none" stroke="#fff" stroke-linecap="round" stroke-width="2"/>
        <line id="Line_3-4" data-name="Line 3" y1="6" x2="6" transform="translate(0 6)" fill="none" stroke="#fff" stroke-linecap="round" stroke-width="2"/>
      </g>
    </g>
  </g>
</svg>
